<?xml version="1.0" encoding="utf-8" standalone="no"?>
<!DOCTYPE svg PUBLIC "-//W3C//DTD SVG 1.1//EN"
  "http://www.w3.org/Graphics/SVG/1.1/DTD/svg11.dtd">
<svg xmlns:xlink="http://www.w3.org/1999/xlink" width="504pt" height="216pt" viewBox="0 0 504 216" xmlns="http://www.w3.org/2000/svg" version="1.1">
 <metadata>
  <rdf:RDF xmlns:dc="http://purl.org/dc/elements/1.1/" xmlns:cc="http://creativecommons.org/ns#" xmlns:rdf="http://www.w3.org/1999/02/22-rdf-syntax-ns#">
   <cc:Work>
    <dc:type rdf:resource="http://purl.org/dc/dcmitype/StillImage"/>
    <dc:date>2022-04-15T11:32:38.781744</dc:date>
    <dc:format>image/svg+xml</dc:format>
    <dc:creator>
     <cc:Agent>
      <dc:title>Matplotlib v3.5.0, https://matplotlib.org/</dc:title>
     </cc:Agent>
    </dc:creator>
   </cc:Work>
  </rdf:RDF>
 </metadata>
 <defs>
  <style type="text/css">*{stroke-linejoin: round; stroke-linecap: butt}</style>
 </defs>
 <g id="figure_1">
  <g id="patch_1">
   <path d="M 0 216 
L 504 216 
L 504 0 
L 0 0 
L 0 216 
z
" style="fill: none"/>
  </g>
  <g id="axes_1">
   <g id="patch_2">
    <path d="M 47.55 202.2 
L 463.227647 202.2 
L 463.227647 10.8 
L 47.55 10.8 
z
" style="fill: #ffffff"/>
   </g>
   <g id="QuadMesh_1">
    <path d="M 47.55 162.6 
L 67.41964 162.6 
L 67.41964 129.6 
L 47.55 129.6 
L 47.55 162.6 
" clip-path="url(#p99a7b4c26d)" style="fill: #1b0c41; stroke: #000000"/>
    <path d="M 67.41964 162.6 
L 74.080265 162.6 
L 74.080265 129.6 
L 67.41964 129.6 
L 67.41964 162.6 
" clip-path="url(#p99a7b4c26d)" style="fill: #000004; stroke: #000000"/>
    <path d="M 74.080265 162.6 
L 79.745423 162.6 
L 79.745423 129.6 
L 74.080265 129.6 
L 74.080265 162.6 
" clip-path="url(#p99a7b4c26d)" style="fill: #030210; stroke: #000000"/>
    <path d="M 79.745423 162.6 
L 84.515058 162.6 
L 84.515058 129.6 
L 79.745423 129.6 
L 79.745423 162.6 
" clip-path="url(#p99a7b4c26d)" style="fill: #030210; stroke: #000000"/>
    <path d="M 84.515058 162.6 
L 90.189456 162.6 
L 90.189456 129.6 
L 84.515058 129.6 
L 84.515058 162.6 
" clip-path="url(#p99a7b4c26d)" style="fill: #09061f; stroke: #000000"/>
    <path d="M 90.189456 162.6 
L 95.557976 162.6 
L 95.557976 129.6 
L 90.189456 129.6 
L 90.189456 162.6 
" clip-path="url(#p99a7b4c26d)" style="fill: #000004; stroke: #000000"/>
    <path d="M 95.557976 162.6 
L 107.057101 162.6 
L 107.057101 129.6 
L 95.557976 129.6 
L 95.557976 162.6 
" clip-path="url(#p99a7b4c26d)" style="fill: #030210; stroke: #000000"/>
    <path d="M 107.057101 162.6 
L 165.339371 162.6 
L 165.339371 129.6 
L 107.057101 129.6 
L 107.057101 162.6 
" clip-path="url(#p99a7b4c26d)" style="fill: #030210; stroke: #000000"/>
    <path d="M 165.339371 162.6 
L 227.831001 162.6 
L 227.831001 129.6 
L 165.339371 129.6 
L 165.339371 162.6 
" clip-path="url(#p99a7b4c26d)" style="fill: #030210; stroke: #000000"/>
    <path d="M 227.831001 162.6 
L 251.150778 162.6 
L 251.150778 129.6 
L 227.831001 129.6 
L 227.831001 162.6 
" clip-path="url(#p99a7b4c26d)" style="fill: #030210; stroke: #000000"/>
    <path d="M 251.150778 162.6 
L 259.805834 162.6 
L 259.805834 129.6 
L 251.150778 129.6 
L 251.150778 162.6 
" clip-path="url(#p99a7b4c26d)" style="fill: #000004; stroke: #000000"/>
    <path d="M 259.805834 162.6 
L 267.359742 162.6 
L 267.359742 129.6 
L 259.805834 129.6 
L 259.805834 162.6 
" clip-path="url(#p99a7b4c26d)" style="fill: #000004; stroke: #000000"/>
    <path d="M 267.359742 162.6 
L 275.280828 162.6 
L 275.280828 129.6 
L 267.359742 129.6 
L 267.359742 162.6 
" clip-path="url(#p99a7b4c26d)" style="fill: #000004; stroke: #000000"/>
    <path d="M 275.280828 162.6 
L 285.002831 162.6 
L 285.002831 129.6 
L 275.280828 129.6 
L 275.280828 162.6 
" clip-path="url(#p99a7b4c26d)" style="fill: #030210; stroke: #000000"/>
    <path d="M 285.002831 162.6 
L 291.16962 162.6 
L 291.16962 129.6 
L 285.002831 129.6 
L 285.002831 162.6 
" clip-path="url(#p99a7b4c26d)" style="fill: #030210; stroke: #000000"/>
    <path d="M 291.16962 162.6 
L 294.567863 162.6 
L 294.567863 129.6 
L 291.16962 129.6 
L 291.16962 162.6 
" clip-path="url(#p99a7b4c26d)" style="fill: #000004; stroke: #000000"/>
    <path d="M 294.567863 162.6 
L 296.75061 162.6 
L 296.75061 129.6 
L 294.567863 129.6 
L 294.567863 162.6 
" clip-path="url(#p99a7b4c26d)" style="fill: #09061f; stroke: #000000"/>
    <path d="M 296.75061 162.6 
L 298.539791 162.6 
L 298.539791 129.6 
L 296.75061 129.6 
L 296.75061 162.6 
" clip-path="url(#p99a7b4c26d)" style="fill: #030210; stroke: #000000"/>
    <path d="M 298.539791 162.6 
L 300.148757 162.6 
L 300.148757 129.6 
L 298.539791 129.6 
L 298.539791 162.6 
" clip-path="url(#p99a7b4c26d)" style="fill: #09061f; stroke: #000000"/>
    <path d="M 300.148757 162.6 
L 301.520593 162.6 
L 301.520593 129.6 
L 300.148757 129.6 
L 300.148757 162.6 
" clip-path="url(#p99a7b4c26d)" style="fill: #150b37; stroke: #000000"/>
    <path d="M 301.520593 162.6 
L 303.301793 162.6 
L 303.301793 129.6 
L 301.520593 129.6 
L 301.520593 162.6 
" clip-path="url(#p99a7b4c26d)" style="fill: #110a30; stroke: #000000"/>
    <path d="M 303.301793 162.6 
L 305.24143 162.6 
L 305.24143 129.6 
L 303.301793 129.6 
L 303.301793 162.6 
" clip-path="url(#p99a7b4c26d)" style="fill: #260c51; stroke: #000000"/>
    <path d="M 305.24143 162.6 
L 308.243158 162.6 
L 308.243158 129.6 
L 305.24143 129.6 
L 305.24143 162.6 
" clip-path="url(#p99a7b4c26d)" style="fill: #3e0966; stroke: #000000"/>
    <path d="M 308.243158 162.6 
L 311.411992 162.6 
L 311.411992 129.6 
L 308.243158 129.6 
L 308.243158 162.6 
" clip-path="url(#p99a7b4c26d)" style="fill: #260c51; stroke: #000000"/>
    <path d="M 311.411992 162.6 
L 314.764661 162.6 
L 314.764661 129.6 
L 311.411992 129.6 
L 311.411992 162.6 
" clip-path="url(#p99a7b4c26d)" style="fill: #1b0c41; stroke: #000000"/>
    <path d="M 314.764661 162.6 
L 323.723908 162.6 
L 323.723908 129.6 
L 314.764661 129.6 
L 314.764661 162.6 
" clip-path="url(#p99a7b4c26d)" style="fill: #09061f; stroke: #000000"/>
    <path d="M 323.723908 162.6 
L 331.944573 162.6 
L 331.944573 129.6 
L 323.723908 129.6 
L 323.723908 162.6 
" clip-path="url(#p99a7b4c26d)" style="fill: #030210; stroke: #000000"/>
    <path d="M 331.944573 162.6 
L 341.529712 162.6 
L 341.529712 129.6 
L 331.944573 129.6 
L 331.944573 162.6 
" clip-path="url(#p99a7b4c26d)" style="fill: #09061f; stroke: #000000"/>
    <path d="M 341.529712 162.6 
L 350.511659 162.6 
L 350.511659 129.6 
L 341.529712 129.6 
L 341.529712 162.6 
" clip-path="url(#p99a7b4c26d)" style="fill: #1b0c41; stroke: #000000"/>
    <path d="M 350.511659 162.6 
L 362.690854 162.6 
L 362.690854 129.6 
L 350.511659 129.6 
L 350.511659 162.6 
" clip-path="url(#p99a7b4c26d)" style="fill: #260c51; stroke: #000000"/>
    <path d="M 362.690854 162.6 
L 377.571669 162.6 
L 377.571669 129.6 
L 362.690854 129.6 
L 362.690854 162.6 
" clip-path="url(#p99a7b4c26d)" style="fill: #320a5e; stroke: #000000"/>
    <path d="M 377.571669 162.6 
L 400.807091 162.6 
L 400.807091 129.6 
L 377.571669 129.6 
L 377.571669 162.6 
" clip-path="url(#p99a7b4c26d)" style="fill: #4a0c6b; stroke: #000000"/>
    <path d="M 400.807091 162.6 
L 421.170989 162.6 
L 421.170989 129.6 
L 400.807091 129.6 
L 400.807091 162.6 
" clip-path="url(#p99a7b4c26d)" style="fill: #d54a41; stroke: #000000"/>
    <path d="M 421.170989 162.6 
L 435.362763 162.6 
L 435.362763 129.6 
L 421.170989 129.6 
L 421.170989 162.6 
" clip-path="url(#p99a7b4c26d)" style="fill: #f37819; stroke: #000000"/>
    <path d="M 435.362763 162.6 
L 461.659778 162.6 
L 461.659778 129.6 
L 435.362763 129.6 
L 435.362763 162.6 
" clip-path="url(#p99a7b4c26d)" style="fill: #fcffa4; stroke: #000000"/>
    <path d="M 47.55 129.6 
L 67.41964 129.6 
L 67.41964 96.6 
L 47.55 96.6 
L 47.55 129.6 
" clip-path="url(#p99a7b4c26d)" style="fill: #000004; stroke: #000000"/>
    <path d="M 67.41964 129.6 
L 74.080265 129.6 
L 74.080265 96.6 
L 67.41964 96.6 
L 67.41964 129.6 
" clip-path="url(#p99a7b4c26d)" style="fill: #010005; stroke: #000000"/>
    <path d="M 74.080265 129.6 
L 79.745423 129.6 
L 79.745423 96.6 
L 74.080265 96.6 
L 74.080265 129.6 
" clip-path="url(#p99a7b4c26d)" style="fill: #000004; stroke: #000000"/>
    <path d="M 79.745423 129.6 
L 84.515058 129.6 
L 84.515058 96.6 
L 79.745423 96.6 
L 79.745423 129.6 
" clip-path="url(#p99a7b4c26d)" style="fill: #010106; stroke: #000000"/>
    <path d="M 84.515058 129.6 
L 90.189456 129.6 
L 90.189456 96.6 
L 84.515058 96.6 
L 84.515058 129.6 
" clip-path="url(#p99a7b4c26d)" style="fill: #010005; stroke: #000000"/>
    <path d="M 90.189456 129.6 
L 95.557976 129.6 
L 95.557976 96.6 
L 90.189456 96.6 
L 90.189456 129.6 
" clip-path="url(#p99a7b4c26d)" style="fill: #010106; stroke: #000000"/>
    <path d="M 95.557976 129.6 
L 107.057101 129.6 
L 107.057101 96.6 
L 95.557976 96.6 
L 95.557976 129.6 
" clip-path="url(#p99a7b4c26d)" style="fill: #010108; stroke: #000000"/>
    <path d="M 107.057101 129.6 
L 165.339371 129.6 
L 165.339371 96.6 
L 107.057101 96.6 
L 107.057101 129.6 
" clip-path="url(#p99a7b4c26d)" style="fill: #040314; stroke: #000000"/>
    <path d="M 165.339371 129.6 
L 227.831001 129.6 
L 227.831001 96.6 
L 165.339371 96.6 
L 165.339371 129.6 
" clip-path="url(#p99a7b4c26d)" style="fill: #10092d; stroke: #000000"/>
    <path d="M 227.831001 129.6 
L 251.150778 129.6 
L 251.150778 96.6 
L 227.831001 96.6 
L 227.831001 129.6 
" clip-path="url(#p99a7b4c26d)" style="fill: #02020e; stroke: #000000"/>
    <path d="M 251.150778 129.6 
L 259.805834 129.6 
L 259.805834 96.6 
L 251.150778 96.6 
L 251.150778 129.6 
" clip-path="url(#p99a7b4c26d)" style="fill: #02020e; stroke: #000000"/>
    <path d="M 259.805834 129.6 
L 267.359742 129.6 
L 267.359742 96.6 
L 259.805834 96.6 
L 259.805834 129.6 
" clip-path="url(#p99a7b4c26d)" style="fill: #060419; stroke: #000000"/>
    <path d="M 267.359742 129.6 
L 275.280828 129.6 
L 275.280828 96.6 
L 267.359742 96.6 
L 267.359742 129.6 
" clip-path="url(#p99a7b4c26d)" style="fill: #150b37; stroke: #000000"/>
    <path d="M 275.280828 129.6 
L 285.002831 129.6 
L 285.002831 96.6 
L 275.280828 96.6 
L 275.280828 129.6 
" clip-path="url(#p99a7b4c26d)" style="fill: #1b0c41; stroke: #000000"/>
    <path d="M 285.002831 129.6 
L 291.16962 129.6 
L 291.16962 96.6 
L 285.002831 96.6 
L 285.002831 129.6 
" clip-path="url(#p99a7b4c26d)" style="fill: #160b39; stroke: #000000"/>
    <path d="M 291.16962 129.6 
L 294.567863 129.6 
L 294.567863 96.6 
L 291.16962 96.6 
L 291.16962 129.6 
" clip-path="url(#p99a7b4c26d)" style="fill: #420a68; stroke: #000000"/>
    <path d="M 294.567863 129.6 
L 296.75061 129.6 
L 296.75061 96.6 
L 294.567863 96.6 
L 294.567863 129.6 
" clip-path="url(#p99a7b4c26d)" style="fill: #490b6a; stroke: #000000"/>
    <path d="M 296.75061 129.6 
L 298.539791 129.6 
L 298.539791 96.6 
L 296.75061 96.6 
L 296.75061 129.6 
" clip-path="url(#p99a7b4c26d)" style="fill: #5f136e; stroke: #000000"/>
    <path d="M 298.539791 129.6 
L 300.148757 129.6 
L 300.148757 96.6 
L 298.539791 96.6 
L 298.539791 129.6 
" clip-path="url(#p99a7b4c26d)" style="fill: #4c0c6b; stroke: #000000"/>
    <path d="M 300.148757 129.6 
L 301.520593 129.6 
L 301.520593 96.6 
L 300.148757 96.6 
L 300.148757 129.6 
" clip-path="url(#p99a7b4c26d)" style="fill: #6d186e; stroke: #000000"/>
    <path d="M 301.520593 129.6 
L 303.301793 129.6 
L 303.301793 96.6 
L 301.520593 96.6 
L 301.520593 129.6 
" clip-path="url(#p99a7b4c26d)" style="fill: #87216b; stroke: #000000"/>
    <path d="M 303.301793 129.6 
L 305.24143 129.6 
L 305.24143 96.6 
L 303.301793 96.6 
L 303.301793 129.6 
" clip-path="url(#p99a7b4c26d)" style="fill: #6f196e; stroke: #000000"/>
    <path d="M 305.24143 129.6 
L 308.243158 129.6 
L 308.243158 96.6 
L 305.24143 96.6 
L 305.24143 129.6 
" clip-path="url(#p99a7b4c26d)" style="fill: #71196e; stroke: #000000"/>
    <path d="M 308.243158 129.6 
L 311.411992 129.6 
L 311.411992 96.6 
L 308.243158 96.6 
L 308.243158 129.6 
" clip-path="url(#p99a7b4c26d)" style="fill: #7f1e6c; stroke: #000000"/>
    <path d="M 311.411992 129.6 
L 314.764661 129.6 
L 314.764661 96.6 
L 311.411992 96.6 
L 311.411992 129.6 
" clip-path="url(#p99a7b4c26d)" style="fill: #a62d60; stroke: #000000"/>
    <path d="M 314.764661 129.6 
L 323.723908 129.6 
L 323.723908 96.6 
L 314.764661 96.6 
L 314.764661 129.6 
" clip-path="url(#p99a7b4c26d)" style="fill: #9d2964; stroke: #000000"/>
    <path d="M 323.723908 129.6 
L 331.944573 129.6 
L 331.944573 96.6 
L 323.723908 96.6 
L 323.723908 129.6 
" clip-path="url(#p99a7b4c26d)" style="fill: #a22b62; stroke: #000000"/>
    <path d="M 331.944573 129.6 
L 341.529712 129.6 
L 341.529712 96.6 
L 331.944573 96.6 
L 331.944573 129.6 
" clip-path="url(#p99a7b4c26d)" style="fill: #d24644; stroke: #000000"/>
    <path d="M 341.529712 129.6 
L 350.511659 129.6 
L 350.511659 96.6 
L 341.529712 96.6 
L 341.529712 129.6 
" clip-path="url(#p99a7b4c26d)" style="fill: #d04545; stroke: #000000"/>
    <path d="M 350.511659 129.6 
L 362.690854 129.6 
L 362.690854 96.6 
L 350.511659 96.6 
L 350.511659 129.6 
" clip-path="url(#p99a7b4c26d)" style="fill: #df5337; stroke: #000000"/>
    <path d="M 362.690854 129.6 
L 377.571669 129.6 
L 377.571669 96.6 
L 362.690854 96.6 
L 362.690854 129.6 
" clip-path="url(#p99a7b4c26d)" style="fill: #ef6c23; stroke: #000000"/>
    <path d="M 377.571669 129.6 
L 400.807091 129.6 
L 400.807091 96.6 
L 377.571669 96.6 
L 377.571669 129.6 
" clip-path="url(#p99a7b4c26d)" style="fill: #fa9207; stroke: #000000"/>
    <path d="M 400.807091 129.6 
L 421.170989 129.6 
L 421.170989 96.6 
L 400.807091 96.6 
L 400.807091 129.6 
" clip-path="url(#p99a7b4c26d)" style="fill: #fcb014; stroke: #000000"/>
    <path d="M 421.170989 129.6 
L 435.362763 129.6 
L 435.362763 96.6 
L 421.170989 96.6 
L 421.170989 129.6 
" clip-path="url(#p99a7b4c26d)" style="fill: #fcffa4; stroke: #000000"/>
    <path d="M 435.362763 129.6 
L 461.659778 129.6 
L 461.659778 96.6 
L 435.362763 96.6 
L 435.362763 129.6 
" clip-path="url(#p99a7b4c26d)" style="fill: #f98e09; stroke: #000000"/>
    <path d="M 47.55 96.6 
L 67.41964 96.6 
L 67.41964 63.6 
L 47.55 63.6 
L 47.55 96.6 
" clip-path="url(#p99a7b4c26d)" style="fill: #000004; stroke: #000000"/>
    <path d="M 67.41964 96.6 
L 74.080265 96.6 
L 74.080265 63.6 
L 67.41964 63.6 
L 67.41964 96.6 
" clip-path="url(#p99a7b4c26d)" style="fill: #1f0c48; stroke: #000000"/>
    <path d="M 74.080265 96.6 
L 79.745423 96.6 
L 79.745423 63.6 
L 74.080265 63.6 
L 74.080265 96.6 
" clip-path="url(#p99a7b4c26d)" style="fill: #02020e; stroke: #000000"/>
    <path d="M 79.745423 96.6 
L 84.515058 96.6 
L 84.515058 63.6 
L 79.745423 63.6 
L 79.745423 96.6 
" clip-path="url(#p99a7b4c26d)" style="fill: #02020e; stroke: #000000"/>
    <path d="M 84.515058 96.6 
L 90.189456 96.6 
L 90.189456 63.6 
L 84.515058 63.6 
L 84.515058 96.6 
" clip-path="url(#p99a7b4c26d)" style="fill: #07051b; stroke: #000000"/>
    <path d="M 90.189456 96.6 
L 95.557976 96.6 
L 95.557976 63.6 
L 90.189456 63.6 
L 90.189456 96.6 
" clip-path="url(#p99a7b4c26d)" style="fill: #000004; stroke: #000000"/>
    <path d="M 95.557976 96.6 
L 107.057101 96.6 
L 107.057101 63.6 
L 95.557976 63.6 
L 95.557976 96.6 
" clip-path="url(#p99a7b4c26d)" style="fill: #02020e; stroke: #000000"/>
    <path d="M 107.057101 96.6 
L 165.339371 96.6 
L 165.339371 63.6 
L 107.057101 63.6 
L 107.057101 96.6 
" clip-path="url(#p99a7b4c26d)" style="fill: #02020e; stroke: #000000"/>
    <path d="M 165.339371 96.6 
L 227.831001 96.6 
L 227.831001 63.6 
L 165.339371 63.6 
L 165.339371 96.6 
" clip-path="url(#p99a7b4c26d)" style="fill: #0d0829; stroke: #000000"/>
    <path d="M 227.831001 96.6 
L 251.150778 96.6 
L 251.150778 63.6 
L 227.831001 63.6 
L 227.831001 96.6 
" clip-path="url(#p99a7b4c26d)" style="fill: #02020e; stroke: #000000"/>
    <path d="M 251.150778 96.6 
L 259.805834 96.6 
L 259.805834 63.6 
L 251.150778 63.6 
L 251.150778 96.6 
" clip-path="url(#p99a7b4c26d)" style="fill: #0d0829; stroke: #000000"/>
    <path d="M 259.805834 96.6 
L 267.359742 96.6 
L 267.359742 63.6 
L 259.805834 63.6 
L 259.805834 96.6 
" clip-path="url(#p99a7b4c26d)" style="fill: #150b37; stroke: #000000"/>
    <path d="M 267.359742 96.6 
L 275.280828 96.6 
L 275.280828 63.6 
L 267.359742 63.6 
L 267.359742 96.6 
" clip-path="url(#p99a7b4c26d)" style="fill: #340a5f; stroke: #000000"/>
    <path d="M 275.280828 96.6 
L 285.002831 96.6 
L 285.002831 63.6 
L 275.280828 63.6 
L 275.280828 96.6 
" clip-path="url(#p99a7b4c26d)" style="fill: #7c1d6d; stroke: #000000"/>
    <path d="M 285.002831 96.6 
L 291.16962 96.6 
L 291.16962 63.6 
L 285.002831 63.6 
L 285.002831 96.6 
" clip-path="url(#p99a7b4c26d)" style="fill: #7c1d6d; stroke: #000000"/>
    <path d="M 291.16962 96.6 
L 294.567863 96.6 
L 294.567863 63.6 
L 291.16962 63.6 
L 291.16962 96.6 
" clip-path="url(#p99a7b4c26d)" style="fill: #8f2469; stroke: #000000"/>
    <path d="M 294.567863 96.6 
L 296.75061 96.6 
L 296.75061 63.6 
L 294.567863 63.6 
L 294.567863 96.6 
" clip-path="url(#p99a7b4c26d)" style="fill: #d04545; stroke: #000000"/>
    <path d="M 296.75061 96.6 
L 298.539791 96.6 
L 298.539791 63.6 
L 296.75061 63.6 
L 296.75061 96.6 
" clip-path="url(#p99a7b4c26d)" style="fill: #db503b; stroke: #000000"/>
    <path d="M 298.539791 96.6 
L 300.148757 96.6 
L 300.148757 63.6 
L 298.539791 63.6 
L 298.539791 96.6 
" clip-path="url(#p99a7b4c26d)" style="fill: #c03a51; stroke: #000000"/>
    <path d="M 300.148757 96.6 
L 301.520593 96.6 
L 301.520593 63.6 
L 300.148757 63.6 
L 300.148757 96.6 
" clip-path="url(#p99a7b4c26d)" style="fill: #e05536; stroke: #000000"/>
    <path d="M 301.520593 96.6 
L 303.301793 96.6 
L 303.301793 63.6 
L 301.520593 63.6 
L 301.520593 96.6 
" clip-path="url(#p99a7b4c26d)" style="fill: #f8850f; stroke: #000000"/>
    <path d="M 303.301793 96.6 
L 305.24143 96.6 
L 305.24143 63.6 
L 303.301793 63.6 
L 303.301793 96.6 
" clip-path="url(#p99a7b4c26d)" style="fill: #fcffa4; stroke: #000000"/>
    <path d="M 305.24143 96.6 
L 308.243158 96.6 
L 308.243158 63.6 
L 305.24143 63.6 
L 305.24143 96.6 
" clip-path="url(#p99a7b4c26d)" style="fill: #e05536; stroke: #000000"/>
    <path d="M 308.243158 96.6 
L 311.411992 96.6 
L 311.411992 63.6 
L 308.243158 63.6 
L 308.243158 96.6 
" clip-path="url(#p99a7b4c26d)" style="fill: #fac42a; stroke: #000000"/>
    <path d="M 311.411992 96.6 
L 314.764661 96.6 
L 314.764661 63.6 
L 311.411992 63.6 
L 311.411992 96.6 
" clip-path="url(#p99a7b4c26d)" style="fill: #8f2469; stroke: #000000"/>
    <path d="M 314.764661 96.6 
L 323.723908 96.6 
L 323.723908 63.6 
L 314.764661 63.6 
L 314.764661 96.6 
" clip-path="url(#p99a7b4c26d)" style="fill: #290b55; stroke: #000000"/>
    <path d="M 323.723908 96.6 
L 331.944573 96.6 
L 331.944573 63.6 
L 323.723908 63.6 
L 323.723908 96.6 
" clip-path="url(#p99a7b4c26d)" style="fill: #150b37; stroke: #000000"/>
    <path d="M 331.944573 96.6 
L 341.529712 96.6 
L 341.529712 63.6 
L 331.944573 63.6 
L 331.944573 96.6 
" clip-path="url(#p99a7b4c26d)" style="fill: #150b37; stroke: #000000"/>
    <path d="M 341.529712 96.6 
L 350.511659 96.6 
L 350.511659 63.6 
L 341.529712 63.6 
L 341.529712 96.6 
" clip-path="url(#p99a7b4c26d)" style="fill: #000004; stroke: #000000"/>
    <path d="M 350.511659 96.6 
L 362.690854 96.6 
L 362.690854 63.6 
L 350.511659 63.6 
L 350.511659 96.6 
" clip-path="url(#p99a7b4c26d)" style="fill: #02020e; stroke: #000000"/>
    <path d="M 362.690854 96.6 
L 377.571669 96.6 
L 377.571669 63.6 
L 362.690854 63.6 
L 362.690854 96.6 
" clip-path="url(#p99a7b4c26d)" style="fill: #02020e; stroke: #000000"/>
    <path d="M 377.571669 96.6 
L 400.807091 96.6 
L 400.807091 63.6 
L 377.571669 63.6 
L 377.571669 96.6 
" clip-path="url(#p99a7b4c26d)" style="fill: #000004; stroke: #000000"/>
    <path d="M 400.807091 96.6 
L 421.170989 96.6 
L 421.170989 63.6 
L 400.807091 63.6 
L 400.807091 96.6 
" clip-path="url(#p99a7b4c26d)" style="fill: #000004; stroke: #000000"/>
    <path d="M 421.170989 96.6 
L 435.362763 96.6 
L 435.362763 63.6 
L 421.170989 63.6 
L 421.170989 96.6 
" clip-path="url(#p99a7b4c26d)" style="fill: #02020e; stroke: #000000"/>
    <path d="M 435.362763 96.6 
L 461.659778 96.6 
L 461.659778 63.6 
L 435.362763 63.6 
L 435.362763 96.6 
" clip-path="url(#p99a7b4c26d)" style="fill: #040312; stroke: #000000"/>
    <path d="M 47.55 63.6 
L 67.41964 63.6 
L 67.41964 30.6 
L 47.55 30.6 
L 47.55 63.6 
" clip-path="url(#p99a7b4c26d)" style="fill: #c43c4e; stroke: #000000"/>
    <path d="M 67.41964 63.6 
L 74.080265 63.6 
L 74.080265 30.6 
L 67.41964 30.6 
L 67.41964 63.6 
" clip-path="url(#p99a7b4c26d)" style="fill: #d54a41; stroke: #000000"/>
    <path d="M 74.080265 63.6 
L 79.745423 63.6 
L 79.745423 30.6 
L 74.080265 30.6 
L 74.080265 63.6 
" clip-path="url(#p99a7b4c26d)" style="fill: #f67e14; stroke: #000000"/>
    <path d="M 79.745423 63.6 
L 84.515058 63.6 
L 84.515058 30.6 
L 79.745423 30.6 
L 79.745423 63.6 
" clip-path="url(#p99a7b4c26d)" style="fill: #d94d3d; stroke: #000000"/>
    <path d="M 84.515058 63.6 
L 90.189456 63.6 
L 90.189456 30.6 
L 84.515058 30.6 
L 84.515058 63.6 
" clip-path="url(#p99a7b4c26d)" style="fill: #ed6925; stroke: #000000"/>
    <path d="M 90.189456 63.6 
L 95.557976 63.6 
L 95.557976 30.6 
L 90.189456 30.6 
L 90.189456 63.6 
" clip-path="url(#p99a7b4c26d)" style="fill: #f78212; stroke: #000000"/>
    <path d="M 95.557976 63.6 
L 107.057101 63.6 
L 107.057101 30.6 
L 95.557976 30.6 
L 95.557976 63.6 
" clip-path="url(#p99a7b4c26d)" style="fill: #f57d15; stroke: #000000"/>
    <path d="M 107.057101 63.6 
L 165.339371 63.6 
L 165.339371 30.6 
L 107.057101 30.6 
L 107.057101 63.6 
" clip-path="url(#p99a7b4c26d)" style="fill: #fcffa4; stroke: #000000"/>
    <path d="M 165.339371 63.6 
L 227.831001 63.6 
L 227.831001 30.6 
L 165.339371 30.6 
L 165.339371 63.6 
" clip-path="url(#p99a7b4c26d)" style="fill: #f78212; stroke: #000000"/>
    <path d="M 227.831001 63.6 
L 251.150778 63.6 
L 251.150778 30.6 
L 227.831001 30.6 
L 227.831001 63.6 
" clip-path="url(#p99a7b4c26d)" style="fill: #bd3853; stroke: #000000"/>
    <path d="M 251.150778 63.6 
L 259.805834 63.6 
L 259.805834 30.6 
L 251.150778 30.6 
L 251.150778 63.6 
" clip-path="url(#p99a7b4c26d)" style="fill: #64156e; stroke: #000000"/>
    <path d="M 259.805834 63.6 
L 267.359742 63.6 
L 267.359742 30.6 
L 259.805834 30.6 
L 259.805834 63.6 
" clip-path="url(#p99a7b4c26d)" style="fill: #5d126e; stroke: #000000"/>
    <path d="M 267.359742 63.6 
L 275.280828 63.6 
L 275.280828 30.6 
L 267.359742 30.6 
L 267.359742 63.6 
" clip-path="url(#p99a7b4c26d)" style="fill: #210c4a; stroke: #000000"/>
    <path d="M 275.280828 63.6 
L 285.002831 63.6 
L 285.002831 30.6 
L 275.280828 30.6 
L 275.280828 63.6 
" clip-path="url(#p99a7b4c26d)" style="fill: #240c4f; stroke: #000000"/>
    <path d="M 285.002831 63.6 
L 291.16962 63.6 
L 291.16962 30.6 
L 285.002831 30.6 
L 285.002831 63.6 
" clip-path="url(#p99a7b4c26d)" style="fill: #040312; stroke: #000000"/>
    <path d="M 291.16962 63.6 
L 294.567863 63.6 
L 294.567863 30.6 
L 291.16962 30.6 
L 291.16962 63.6 
" clip-path="url(#p99a7b4c26d)" style="fill: #040312; stroke: #000000"/>
    <path d="M 294.567863 63.6 
L 296.75061 63.6 
L 296.75061 30.6 
L 294.567863 30.6 
L 294.567863 63.6 
" clip-path="url(#p99a7b4c26d)" style="fill: #040312; stroke: #000000"/>
    <path d="M 296.75061 63.6 
L 298.539791 63.6 
L 298.539791 30.6 
L 296.75061 30.6 
L 296.75061 63.6 
" clip-path="url(#p99a7b4c26d)" style="fill: #010108; stroke: #000000"/>
    <path d="M 298.539791 63.6 
L 300.148757 63.6 
L 300.148757 30.6 
L 298.539791 30.6 
L 298.539791 63.6 
" clip-path="url(#p99a7b4c26d)" style="fill: #010005; stroke: #000000"/>
    <path d="M 300.148757 63.6 
L 301.520593 63.6 
L 301.520593 30.6 
L 300.148757 30.6 
L 300.148757 63.6 
" clip-path="url(#p99a7b4c26d)" style="fill: #02010a; stroke: #000000"/>
    <path d="M 301.520593 63.6 
L 303.301793 63.6 
L 303.301793 30.6 
L 301.520593 30.6 
L 301.520593 63.6 
" clip-path="url(#p99a7b4c26d)" style="fill: #010108; stroke: #000000"/>
    <path d="M 303.301793 63.6 
L 305.24143 63.6 
L 305.24143 30.6 
L 303.301793 30.6 
L 303.301793 63.6 
" clip-path="url(#p99a7b4c26d)" style="fill: #02010a; stroke: #000000"/>
    <path d="M 305.24143 63.6 
L 308.243158 63.6 
L 308.243158 30.6 
L 305.24143 30.6 
L 305.24143 63.6 
" clip-path="url(#p99a7b4c26d)" style="fill: #010005; stroke: #000000"/>
    <path d="M 308.243158 63.6 
L 311.411992 63.6 
L 311.411992 30.6 
L 308.243158 30.6 
L 308.243158 63.6 
" clip-path="url(#p99a7b4c26d)" style="fill: #02010a; stroke: #000000"/>
    <path d="M 311.411992 63.6 
L 314.764661 63.6 
L 314.764661 30.6 
L 311.411992 30.6 
L 311.411992 63.6 
" clip-path="url(#p99a7b4c26d)" style="fill: #010005; stroke: #000000"/>
    <path d="M 314.764661 63.6 
L 323.723908 63.6 
L 323.723908 30.6 
L 314.764661 30.6 
L 314.764661 63.6 
" clip-path="url(#p99a7b4c26d)" style="fill: #02010a; stroke: #000000"/>
    <path d="M 323.723908 63.6 
L 331.944573 63.6 
L 331.944573 30.6 
L 323.723908 30.6 
L 323.723908 63.6 
" clip-path="url(#p99a7b4c26d)" style="fill: #02010a; stroke: #000000"/>
    <path d="M 331.944573 63.6 
L 341.529712 63.6 
L 341.529712 30.6 
L 331.944573 30.6 
L 331.944573 63.6 
" clip-path="url(#p99a7b4c26d)" style="fill: #010108; stroke: #000000"/>
    <path d="M 341.529712 63.6 
L 350.511659 63.6 
L 350.511659 30.6 
L 341.529712 30.6 
L 341.529712 63.6 
" clip-path="url(#p99a7b4c26d)" style="fill: #000004; stroke: #000000"/>
    <path d="M 350.511659 63.6 
L 362.690854 63.6 
L 362.690854 30.6 
L 350.511659 30.6 
L 350.511659 63.6 
" clip-path="url(#p99a7b4c26d)" style="fill: #010005; stroke: #000000"/>
    <path d="M 362.690854 63.6 
L 377.571669 63.6 
L 377.571669 30.6 
L 362.690854 30.6 
L 362.690854 63.6 
" clip-path="url(#p99a7b4c26d)" style="fill: #010108; stroke: #000000"/>
    <path d="M 377.571669 63.6 
L 400.807091 63.6 
L 400.807091 30.6 
L 377.571669 30.6 
L 377.571669 63.6 
" clip-path="url(#p99a7b4c26d)" style="fill: #010005; stroke: #000000"/>
    <path d="M 400.807091 63.6 
L 421.170989 63.6 
L 421.170989 30.6 
L 400.807091 30.6 
L 400.807091 63.6 
" clip-path="url(#p99a7b4c26d)" style="fill: #010005; stroke: #000000"/>
    <path d="M 421.170989 63.6 
L 435.362763 63.6 
L 435.362763 30.6 
L 421.170989 30.6 
L 421.170989 63.6 
" clip-path="url(#p99a7b4c26d)" style="fill: #02020e; stroke: #000000"/>
    <path d="M 435.362763 63.6 
L 461.659778 63.6 
L 461.659778 30.6 
L 435.362763 30.6 
L 435.362763 63.6 
" clip-path="url(#p99a7b4c26d)" style="fill: #030210; stroke: #000000"/>
   </g>
   <g id="PolyCollection_1">
    <defs>
     <path id="mf9b8bcb58a" d="M 47.55 -13.8 
L 47.55 -13.8 
L 461.659778 -27 
L 461.659778 -13.8 
L 461.659778 -13.8 
L 47.55 -13.8 
z
" style="stroke: #d3d3d3"/>
    </defs>
    <g clip-path="url(#p99a7b4c26d)">
     <use xlink:href="#mf9b8bcb58a" x="0" y="216" style="fill: #d3d3d3; stroke: #d3d3d3"/>
    </g>
   </g>
   <g id="matplotlib.axis_1"/>
   <g id="matplotlib.axis_2">
    <g id="ytick_1">
     <g id="line2d_1">
      <defs>
       <path id="mdaaa322179" d="M 0 0 
L -3.5 0 
" style="stroke: #000000; stroke-width: 0.8"/>
      </defs>
      <g>
       <use xlink:href="#mdaaa322179" x="47.55" y="146.1" style="stroke: #000000; stroke-width: 0.8"/>
      </g>
     </g>
     <g id="text_1">
      <!-- WNT3 -->
      <g transform="translate(10.710938 149.899219)scale(0.1 -0.1)">
       <defs>
        <path id="DejaVuSans-57" d="M 213 4666 
L 850 4666 
L 1831 722 
L 2809 4666 
L 3519 4666 
L 4500 722 
L 5478 4666 
L 6119 4666 
L 4947 0 
L 4153 0 
L 3169 4050 
L 2175 0 
L 1381 0 
L 213 4666 
z
" transform="scale(0.015625)"/>
        <path id="DejaVuSans-4e" d="M 628 4666 
L 1478 4666 
L 3547 763 
L 3547 4666 
L 4159 4666 
L 4159 0 
L 3309 0 
L 1241 3903 
L 1241 0 
L 628 0 
L 628 4666 
z
" transform="scale(0.015625)"/>
        <path id="DejaVuSans-54" d="M -19 4666 
L 3928 4666 
L 3928 4134 
L 2272 4134 
L 2272 0 
L 1638 0 
L 1638 4134 
L -19 4134 
L -19 4666 
z
" transform="scale(0.015625)"/>
        <path id="DejaVuSans-33" d="M 2597 2516 
Q 3050 2419 3304 2112 
Q 3559 1806 3559 1356 
Q 3559 666 3084 287 
Q 2609 -91 1734 -91 
Q 1441 -91 1130 -33 
Q 819 25 488 141 
L 488 750 
Q 750 597 1062 519 
Q 1375 441 1716 441 
Q 2309 441 2620 675 
Q 2931 909 2931 1356 
Q 2931 1769 2642 2001 
Q 2353 2234 1838 2234 
L 1294 2234 
L 1294 2753 
L 1863 2753 
Q 2328 2753 2575 2939 
Q 2822 3125 2822 3475 
Q 2822 3834 2567 4026 
Q 2313 4219 1838 4219 
Q 1578 4219 1281 4162 
Q 984 4106 628 3988 
L 628 4550 
Q 988 4650 1302 4700 
Q 1616 4750 1894 4750 
Q 2613 4750 3031 4423 
Q 3450 4097 3450 3541 
Q 3450 3153 3228 2886 
Q 3006 2619 2597 2516 
z
" transform="scale(0.015625)"/>
       </defs>
       <use xlink:href="#DejaVuSans-57"/>
       <use xlink:href="#DejaVuSans-4e" x="98.876953"/>
       <use xlink:href="#DejaVuSans-54" x="173.681641"/>
       <use xlink:href="#DejaVuSans-33" x="234.765625"/>
      </g>
     </g>
    </g>
    <g id="ytick_2">
     <g id="line2d_2">
      <g>
       <use xlink:href="#mdaaa322179" x="47.55" y="113.1" style="stroke: #000000; stroke-width: 0.8"/>
      </g>
     </g>
     <g id="text_2">
      <!-- LEF1 -->
      <g transform="translate(16.545313 116.899219)scale(0.1 -0.1)">
       <defs>
        <path id="DejaVuSans-4c" d="M 628 4666 
L 1259 4666 
L 1259 531 
L 3531 531 
L 3531 0 
L 628 0 
L 628 4666 
z
" transform="scale(0.015625)"/>
        <path id="DejaVuSans-45" d="M 628 4666 
L 3578 4666 
L 3578 4134 
L 1259 4134 
L 1259 2753 
L 3481 2753 
L 3481 2222 
L 1259 2222 
L 1259 531 
L 3634 531 
L 3634 0 
L 628 0 
L 628 4666 
z
" transform="scale(0.015625)"/>
        <path id="DejaVuSans-46" d="M 628 4666 
L 3309 4666 
L 3309 4134 
L 1259 4134 
L 1259 2759 
L 3109 2759 
L 3109 2228 
L 1259 2228 
L 1259 0 
L 628 0 
L 628 4666 
z
" transform="scale(0.015625)"/>
        <path id="DejaVuSans-31" d="M 794 531 
L 1825 531 
L 1825 4091 
L 703 3866 
L 703 4441 
L 1819 4666 
L 2450 4666 
L 2450 531 
L 3481 531 
L 3481 0 
L 794 0 
L 794 531 
z
" transform="scale(0.015625)"/>
       </defs>
       <use xlink:href="#DejaVuSans-4c"/>
       <use xlink:href="#DejaVuSans-45" x="55.712891"/>
       <use xlink:href="#DejaVuSans-46" x="118.896484"/>
       <use xlink:href="#DejaVuSans-31" x="176.416016"/>
      </g>
     </g>
    </g>
    <g id="ytick_3">
     <g id="line2d_3">
      <g>
       <use xlink:href="#mdaaa322179" x="47.55" y="80.1" style="stroke: #000000; stroke-width: 0.8"/>
      </g>
     </g>
     <g id="text_3">
      <!-- EDAR -->
      <g transform="translate(12.917188 83.899219)scale(0.1 -0.1)">
       <defs>
        <path id="DejaVuSans-44" d="M 1259 4147 
L 1259 519 
L 2022 519 
Q 2988 519 3436 956 
Q 3884 1394 3884 2338 
Q 3884 3275 3436 3711 
Q 2988 4147 2022 4147 
L 1259 4147 
z
M 628 4666 
L 1925 4666 
Q 3281 4666 3915 4102 
Q 4550 3538 4550 2338 
Q 4550 1131 3912 565 
Q 3275 0 1925 0 
L 628 0 
L 628 4666 
z
" transform="scale(0.015625)"/>
        <path id="DejaVuSans-41" d="M 2188 4044 
L 1331 1722 
L 3047 1722 
L 2188 4044 
z
M 1831 4666 
L 2547 4666 
L 4325 0 
L 3669 0 
L 3244 1197 
L 1141 1197 
L 716 0 
L 50 0 
L 1831 4666 
z
" transform="scale(0.015625)"/>
        <path id="DejaVuSans-52" d="M 2841 2188 
Q 3044 2119 3236 1894 
Q 3428 1669 3622 1275 
L 4263 0 
L 3584 0 
L 2988 1197 
Q 2756 1666 2539 1819 
Q 2322 1972 1947 1972 
L 1259 1972 
L 1259 0 
L 628 0 
L 628 4666 
L 2053 4666 
Q 2853 4666 3247 4331 
Q 3641 3997 3641 3322 
Q 3641 2881 3436 2590 
Q 3231 2300 2841 2188 
z
M 1259 4147 
L 1259 2491 
L 2053 2491 
Q 2509 2491 2742 2702 
Q 2975 2913 2975 3322 
Q 2975 3731 2742 3939 
Q 2509 4147 2053 4147 
L 1259 4147 
z
" transform="scale(0.015625)"/>
       </defs>
       <use xlink:href="#DejaVuSans-45"/>
       <use xlink:href="#DejaVuSans-44" x="63.183594"/>
       <use xlink:href="#DejaVuSans-41" x="138.435547"/>
       <use xlink:href="#DejaVuSans-52" x="206.84375"/>
      </g>
     </g>
    </g>
    <g id="ytick_4">
     <g id="line2d_4">
      <g>
       <use xlink:href="#mdaaa322179" x="47.55" y="47.1" style="stroke: #000000; stroke-width: 0.8"/>
      </g>
     </g>
     <g id="text_4">
      <!-- LGR5 -->
      <g transform="translate(13.91875 50.899219)scale(0.1 -0.1)">
       <defs>
        <path id="DejaVuSans-47" d="M 3809 666 
L 3809 1919 
L 2778 1919 
L 2778 2438 
L 4434 2438 
L 4434 434 
Q 4069 175 3628 42 
Q 3188 -91 2688 -91 
Q 1594 -91 976 548 
Q 359 1188 359 2328 
Q 359 3472 976 4111 
Q 1594 4750 2688 4750 
Q 3144 4750 3555 4637 
Q 3966 4525 4313 4306 
L 4313 3634 
Q 3963 3931 3569 4081 
Q 3175 4231 2741 4231 
Q 1884 4231 1454 3753 
Q 1025 3275 1025 2328 
Q 1025 1384 1454 906 
Q 1884 428 2741 428 
Q 3075 428 3337 486 
Q 3600 544 3809 666 
z
" transform="scale(0.015625)"/>
        <path id="DejaVuSans-35" d="M 691 4666 
L 3169 4666 
L 3169 4134 
L 1269 4134 
L 1269 2991 
Q 1406 3038 1543 3061 
Q 1681 3084 1819 3084 
Q 2600 3084 3056 2656 
Q 3513 2228 3513 1497 
Q 3513 744 3044 326 
Q 2575 -91 1722 -91 
Q 1428 -91 1123 -41 
Q 819 9 494 109 
L 494 744 
Q 775 591 1075 516 
Q 1375 441 1709 441 
Q 2250 441 2565 725 
Q 2881 1009 2881 1497 
Q 2881 1984 2565 2268 
Q 2250 2553 1709 2553 
Q 1456 2553 1204 2497 
Q 953 2441 691 2322 
L 691 4666 
z
" transform="scale(0.015625)"/>
       </defs>
       <use xlink:href="#DejaVuSans-4c"/>
       <use xlink:href="#DejaVuSans-47" x="55.712891"/>
       <use xlink:href="#DejaVuSans-52" x="133.203125"/>
       <use xlink:href="#DejaVuSans-35" x="202.685547"/>
      </g>
     </g>
    </g>
   </g>
   <g id="text_5">
    <!-- Time -->
    <g transform="translate(463.730326 202.2)scale(0.12 -0.12)">
     <defs>
      <path id="DejaVuSans-69" d="M 603 3500 
L 1178 3500 
L 1178 0 
L 603 0 
L 603 3500 
z
M 603 4863 
L 1178 4863 
L 1178 4134 
L 603 4134 
L 603 4863 
z
" transform="scale(0.015625)"/>
      <path id="DejaVuSans-6d" d="M 3328 2828 
Q 3544 3216 3844 3400 
Q 4144 3584 4550 3584 
Q 5097 3584 5394 3201 
Q 5691 2819 5691 2113 
L 5691 0 
L 5113 0 
L 5113 2094 
Q 5113 2597 4934 2840 
Q 4756 3084 4391 3084 
Q 3944 3084 3684 2787 
Q 3425 2491 3425 1978 
L 3425 0 
L 2847 0 
L 2847 2094 
Q 2847 2600 2669 2842 
Q 2491 3084 2119 3084 
Q 1678 3084 1418 2786 
Q 1159 2488 1159 1978 
L 1159 0 
L 581 0 
L 581 3500 
L 1159 3500 
L 1159 2956 
Q 1356 3278 1631 3431 
Q 1906 3584 2284 3584 
Q 2666 3584 2933 3390 
Q 3200 3197 3328 2828 
z
" transform="scale(0.015625)"/>
      <path id="DejaVuSans-65" d="M 3597 1894 
L 3597 1613 
L 953 1613 
Q 991 1019 1311 708 
Q 1631 397 2203 397 
Q 2534 397 2845 478 
Q 3156 559 3463 722 
L 3463 178 
Q 3153 47 2828 -22 
Q 2503 -91 2169 -91 
Q 1331 -91 842 396 
Q 353 884 353 1716 
Q 353 2575 817 3079 
Q 1281 3584 2069 3584 
Q 2775 3584 3186 3129 
Q 3597 2675 3597 1894 
z
M 3022 2063 
Q 3016 2534 2758 2815 
Q 2500 3097 2075 3097 
Q 1594 3097 1305 2825 
Q 1016 2553 972 2059 
L 3022 2063 
z
" transform="scale(0.015625)"/>
     </defs>
     <use xlink:href="#DejaVuSans-54"/>
     <use xlink:href="#DejaVuSans-69" x="57.958984"/>
     <use xlink:href="#DejaVuSans-6d" x="85.742188"/>
     <use xlink:href="#DejaVuSans-65" x="183.154297"/>
    </g>
   </g>
  </g>
 </g>
 <defs>
  <clipPath id="p99a7b4c26d">
   <rect x="47.55" y="10.8" width="415.677647" height="191.4"/>
  </clipPath>
 </defs>
</svg>
