<?xml version="1.0" encoding="utf-8" standalone="no"?>
<!DOCTYPE svg PUBLIC "-//W3C//DTD SVG 1.1//EN"
  "http://www.w3.org/Graphics/SVG/1.1/DTD/svg11.dtd">
<svg xmlns:xlink="http://www.w3.org/1999/xlink" width="360pt" height="216pt" viewBox="0 0 360 216" xmlns="http://www.w3.org/2000/svg" version="1.1">
 <metadata>
  <rdf:RDF xmlns:dc="http://purl.org/dc/elements/1.1/" xmlns:cc="http://creativecommons.org/ns#" xmlns:rdf="http://www.w3.org/1999/02/22-rdf-syntax-ns#">
   <cc:Work>
    <dc:type rdf:resource="http://purl.org/dc/dcmitype/StillImage"/>
    <dc:date>2022-04-15T11:32:37.321412</dc:date>
    <dc:format>image/svg+xml</dc:format>
    <dc:creator>
     <cc:Agent>
      <dc:title>Matplotlib v3.5.0, https://matplotlib.org/</dc:title>
     </cc:Agent>
    </dc:creator>
   </cc:Work>
  </rdf:RDF>
 </metadata>
 <defs>
  <style type="text/css">*{stroke-linejoin: round; stroke-linecap: butt}</style>
 </defs>
 <g id="figure_1">
  <g id="patch_1">
   <path d="M 0 216 
L 360 216 
L 360 0 
L 0 0 
L 0 216 
z
" style="fill: none"/>
  </g>
  <g id="axes_1">
   <g id="PolyCollection_1">
    <defs>
     <path id="m51121e40bd" d="M 40.323089 -47.554 
L 40.323089 -47.554 
L 299.034866 -52.404646 
L 299.034866 -47.554 
L 299.034866 -47.554 
L 40.323089 -47.554 
z
" style="stroke: #d3d3d3"/>
    </defs>
    <g clip-path="url(#pfc5d366bff)">
     <use xlink:href="#m51121e40bd" x="0" y="216" style="fill: #d3d3d3; stroke: #d3d3d3"/>
    </g>
   </g>
   <g id="LineCollection_1">
    <path d="M 40.323089 98.111631 
L 40.323089 98.111631 
" clip-path="url(#pfc5d366bff)" style="fill: none; stroke: #d3d3d3"/>
   </g>
   <g id="LineCollection_2">
    <path d="M 40.323089 98.111631 
L 40.323089 98.111631 
" clip-path="url(#pfc5d366bff)" style="fill: none; stroke: #d3d3d3"/>
   </g>
   <g id="LineCollection_3">
    <path d="M 181.219775 98.111631 
L 181.219775 61.731785 
" clip-path="url(#pfc5d366bff)" style="fill: none; stroke: #d3d3d3"/>
   </g>
   <g id="LineCollection_4">
    <path d="M 181.219775 61.731785 
L 181.376433 61.731785 
" clip-path="url(#pfc5d366bff)" style="fill: none; stroke: #d3d3d3"/>
   </g>
   <g id="LineCollection_5">
    <path d="M 181.219775 98.111631 
L 181.219775 134.491477 
" clip-path="url(#pfc5d366bff)" style="fill: none; stroke: #d3d3d3"/>
   </g>
   <g id="LineCollection_6">
    <path d="M 181.219775 134.491477 
L 181.276948 134.491477 
" clip-path="url(#pfc5d366bff)" style="fill: none; stroke: #d3d3d3"/>
   </g>
   <g id="LineCollection_7">
    <path d="M 207.335888 61.731785 
L 207.335888 37.478554 
" clip-path="url(#pfc5d366bff)" style="fill: none; stroke: #d3d3d3"/>
   </g>
   <g id="LineCollection_8">
    <path d="M 207.335888 37.478554 
L 207.368825 37.478554 
" clip-path="url(#pfc5d366bff)" style="fill: none; stroke: #d3d3d3"/>
   </g>
   <g id="LineCollection_9">
    <path d="M 207.335888 61.731785 
L 207.335888 85.985015 
" clip-path="url(#pfc5d366bff)" style="fill: none; stroke: #d3d3d3"/>
   </g>
   <g id="LineCollection_10">
    <path d="M 207.335888 85.985015 
L 207.362306 85.985015 
" clip-path="url(#pfc5d366bff)" style="fill: none; stroke: #d3d3d3"/>
   </g>
   <g id="line2d_1">
    <path d="M 40.323089 117.288815 
L 69.225548 117.179502 
L 69.361118 117.17176 
L 75.273795 116.897095 
L 82.8935 116.697804 
L 84.455485 116.681027 
L 98.099068 116.507813 
L 100.264148 116.469072 
L 107.106179 116.301505 
L 118.941022 116.122757 
L 136.874278 115.856617 
L 141.93508 115.758534 
L 151.38103 115.589979 
L 167.198998 115.129185 
L 168.070726 115.075287 
L 170.655905 114.927052 
L 170.896346 114.896212 
L 171.823698 114.877506 
L 172.928226 114.827022 
L 174.974759 114.697596 
L 180.597202 114.331317 
L 181.219775 114.300793 
L 181.219775 114.300793 
" clip-path="url(#pfc5d366bff)" style="fill: none; stroke: #000000; stroke-width: 1.732051; stroke-linecap: square"/>
   </g>
   <g id="LineCollection_11">
    <path d="M 40.323089 117.514215 
L 40.323089 78.709046 
" clip-path="url(#pfc5d366bff)" style="fill: none; stroke: #000000; stroke-width: 0.5"/>
   </g>
   <g id="LineCollection_12">
    <path d="M 181.219775 117.514215 
L 181.219775 78.709046 
" clip-path="url(#pfc5d366bff)" style="fill: none; stroke: #000000; stroke-width: 0.5"/>
   </g>
   <g id="line2d_2">
    <path d="M 40.323089 117.392564 
L 63.213875 117.288547 
L 63.261222 117.273502 
L 63.31129 117.303591 
L 68.665244 117.198279 
L 70.553128 117.062876 
L 72.864073 116.957564 
L 73.233921 116.927475 
L 73.960093 116.927475 
L 73.97454 116.807118 
L 74.053525 116.822163 
L 76.467182 116.731895 
L 76.47163 116.701806 
L 85.152558 116.686761 
L 85.640052 116.566403 
L 90.726717 116.461091 
L 99.780681 116.32569 
L 111.20824 116.220377 
L 115.309215 116.205333 
L 121.254888 116.220377 
L 124.450464 116.220377 
L 160.852882 116.32569 
L 160.945423 116.340734 
L 162.261547 116.370823 
L 163.720281 116.476137 
L 164.041573 116.506226 
L 169.076893 116.596493 
L 169.131471 116.701806 
L 170.953416 116.602974 
L 171.086495 116.58793 
L 172.884261 116.482617 
L 172.928226 116.452527 
L 175.195614 116.143175 
L 176.832894 115.959821 
L 178.300786 115.733685 
L 181.219775 115.385313 
L 181.219775 115.385313 
" clip-path="url(#pfc5d366bff)" style="fill: none; stroke: #ff0000; stroke-width: 1.732051; stroke-linecap: square"/>
   </g>
   <g id="LineCollection_13">
    <path d="M 40.323089 117.514215 
L 40.323089 78.709046 
" clip-path="url(#pfc5d366bff)" style="fill: none; stroke: #000000; stroke-width: 0.5"/>
   </g>
   <g id="LineCollection_14">
    <path d="M 181.219775 117.514215 
L 181.219775 78.709046 
" clip-path="url(#pfc5d366bff)" style="fill: none; stroke: #000000; stroke-width: 0.5"/>
   </g>
   <g id="line2d_3">
    <path d="M 181.376433 78.155594 
L 182.646521 77.74155 
L 182.98845 77.598227 
L 183.058812 77.566377 
L 183.912726 77.423048 
L 183.981732 77.359349 
L 185.463511 77.056778 
L 185.643063 76.977154 
L 186.331508 76.786057 
L 186.475089 76.690508 
L 186.922323 76.53126 
L 187.248545 76.451636 
L 188.556115 76.196834 
L 188.71008 76.11721 
L 190.050318 75.633141 
L 190.282071 75.516648 
L 190.291912 75.471262 
L 190.705027 75.331807 
L 191.100561 75.132643 
L 191.291525 75.090194 
L 191.71555 74.964947 
L 192.031997 74.719489 
L 192.301335 74.589795 
L 192.508338 74.327967 
L 192.851579 73.920879 
L 193.032899 73.809487 
L 193.150084 73.656443 
L 193.152177 73.660572 
L 193.318812 73.476454 
L 193.609994 73.371266 
L 193.937915 73.17183 
L 194.169494 72.982629 
L 194.310927 72.844227 
L 194.476996 72.69877 
L 194.681359 72.636598 
L 194.730263 72.484138 
L 195.036694 72.33734 
L 195.152266 72.23668 
L 195.272229 72.080277 
L 195.989326 71.028217 
L 195.995535 71.036451 
L 196.037653 70.917761 
L 196.580617 70.163497 
L 196.762617 70.096559 
L 196.901969 69.7705 
L 197.766092 68.618058 
L 197.971138 68.153741 
L 198.097795 68.030882 
L 198.215988 67.796954 
L 198.431918 67.428325 
L 198.607627 67.049212 
L 198.685253 67.115224 
L 198.706948 67.039469 
L 198.867612 66.566287 
L 198.8687 66.587665 
L 198.896933 66.596136 
L 198.925176 66.46694 
L 198.936575 66.477718 
L 199.181701 66.00338 
L 199.30556 66.023833 
L 199.41204 65.804182 
L 201.181135 62.621688 
L 201.326599 62.200652 
L 201.437682 62.107017 
L 201.446921 62.13719 
L 202.037874 61.132495 
L 202.1162 61.153277 
L 202.117068 61.109284 
L 202.301073 60.8568 
L 202.342434 60.854956 
L 202.555539 60.471737 
L 202.569785 60.501598 
L 202.74623 60.529163 
L 202.768181 60.470957 
L 202.987996 60.397867 
L 203.10725 60.472755 
L 203.107709 60.457964 
L 203.225795 60.175221 
L 203.337901 59.928808 
L 203.439486 59.609966 
L 203.665286 59.473876 
L 203.954923 59.326702 
L 204.019707 59.249426 
L 204.223022 59.154617 
L 204.342854 58.921644 
L 204.662409 58.735901 
L 204.924887 58.608815 
L 206.225297 58.06137 
L 206.447585 57.934284 
L 206.811328 57.777869 
L 207.303108 57.504141 
L 207.335888 57.46504 
L 207.335888 57.46504 
" clip-path="url(#pfc5d366bff)" style="fill: none; stroke: #000000; stroke-width: 1.732051; stroke-linecap: square"/>
   </g>
   <g id="LineCollection_15">
    <path d="M 181.376433 81.134369 
L 181.376433 42.3292 
" clip-path="url(#pfc5d366bff)" style="fill: none; stroke: #000000; stroke-width: 0.5"/>
   </g>
   <g id="LineCollection_16">
    <path d="M 207.335888 81.134369 
L 207.335888 42.3292 
" clip-path="url(#pfc5d366bff)" style="fill: none; stroke: #000000; stroke-width: 0.5"/>
   </g>
   <g id="line2d_4">
    <path d="M 181.376433 79.194695 
L 183.058812 78.867347 
L 184.262328 78.725787 
L 185.533905 78.557692 
L 188.825638 78.035702 
L 189.023605 77.964919 
L 190.500228 77.777332 
L 192.436772 77.265813 
L 192.508338 76.986447 
L 192.573171 77.130412 
L 192.656374 77.070234 
L 192.673516 77.010056 
L 192.674521 77.100326 
L 192.769527 77.055188 
L 192.955426 76.949879 
L 193.373336 76.853127 
L 193.546312 76.853127 
L 193.803948 76.762858 
L 193.890088 76.732772 
L 193.90607 76.79295 
L 193.970252 76.762858 
L 194.141519 76.401792 
L 194.142667 76.416832 
L 194.26365 76.311523 
L 194.476996 76.130984 
L 194.91624 75.935405 
L 194.930478 75.965497 
L 195.036694 75.920359 
L 195.097952 75.716217 
L 195.107046 75.761348 
L 195.25135 75.656039 
L 195.387387 75.481982 
L 195.284238 75.716217 
L 195.387517 75.497028 
L 195.732728 75.722699 
L 195.755383 75.647475 
L 195.867448 75.722699 
L 196.00918 75.8581 
L 196.031785 75.843054 
L 196.158747 75.587298 
L 196.169478 75.617384 
L 196.22469 75.497028 
L 196.238806 75.512074 
L 196.328053 75.368109 
L 196.357719 75.443333 
L 196.56547 75.284322 
L 196.59872 75.329454 
L 196.657502 75.239184 
L 196.766997 75.058651 
L 196.911121 74.772803 
L 196.954328 74.893158 
L 197.050124 75.037123 
L 197.083812 75.007037 
L 197.104029 74.863072 
L 197.185546 74.998474 
L 197.463356 74.742711 
L 197.21897 75.02856 
L 197.470639 74.772803 
L 197.478306 74.802895 
L 197.503707 74.69758 
L 197.561503 74.772803 
L 197.633138 74.577224 
L 197.746497 74.441823 
L 197.793292 74.351554 
L 197.772893 74.456869 
L 197.854537 74.426777 
L 197.86504 74.456869 
L 197.924989 74.336508 
L 197.936053 74.222635 
L 198.015412 74.312898 
L 198.105528 74.403168 
L 198.149236 74.34299 
L 198.232636 74.199025 
L 198.251622 74.244157 
L 198.288296 74.229111 
L 198.340322 74.085146 
L 198.397734 74.199025 
L 198.641996 73.612283 
L 198.693906 73.461836 
L 198.81346 73.386612 
L 198.850159 73.281303 
L 199.061107 73.206079 
L 199.069373 73.221125 
L 199.181701 73.43175 
L 199.197594 73.476882 
L 199.272763 73.386612 
L 199.282369 73.500491 
L 199.363698 73.266257 
L 199.46739 73.319953 
L 199.47124 73.289867 
L 199.49264 73.229689 
L 199.512674 73.350044 
L 199.54083 73.334998 
L 199.897932 73.831471 
L 200.003166 73.69607 
L 200.029841 73.734726 
L 200.117864 73.554187 
L 200.171455 73.62941 
L 200.192041 73.569233 
L 200.360006 73.674542 
L 200.364889 73.659502 
L 200.484747 73.350044 
L 200.512629 73.36509 
L 200.564166 73.395176 
L 200.594071 73.334998 
L 200.595759 73.244729 
L 200.672052 73.304907 
L 200.717034 73.334998 
L 200.724698 73.259775 
L 200.734198 73.184551 
L 200.764827 73.334998 
L 200.818349 73.289867 
L 200.957474 73.620847 
L 201.003369 73.590755 
L 201.046434 73.500491 
L 201.100099 73.590755 
L 201.101631 73.689588 
L 201.205588 73.569233 
L 201.206891 73.569233 
L 201.336537 73.388694 
L 201.313752 73.592842 
L 201.342335 73.40374 
L 201.431509 73.343562 
L 201.446921 73.472481 
L 201.543846 73.457441 
L 201.634572 73.478963 
L 201.71314 73.674542 
L 201.848402 73.674542 
L 202.002084 73.388694 
L 202.037874 73.577796 
L 202.342434 73.524101 
L 202.541504 73.764812 
L 202.555539 73.71968 
L 202.66482 73.569233 
L 202.693307 73.584279 
L 202.718492 73.659502 
L 202.750984 73.554187 
L 202.802247 73.584279 
L 203.248911 73.184551 
L 203.258731 73.214643 
L 203.828035 72.847089 
L 203.829662 72.832043 
L 203.877245 72.862135 
L 203.909583 72.847089 
L 204.019707 72.816998 
L 204.129237 72.642947 
L 204.256528 72.1143 
L 204.299874 72.129346 
L 204.342854 72.07993 
L 204.545727 71.867345 
L 204.67558 71.654754 
L 204.890942 71.480819 
L 205.584391 70.959013 
L 205.78138 70.746423 
L 206.038838 70.591818 
L 206.225297 70.379227 
L 206.412744 70.147312 
L 206.850414 69.780116 
L 206.988471 69.625506 
L 207.269612 69.316291 
L 207.335888 69.20033 
L 207.335888 69.20033 
" clip-path="url(#pfc5d366bff)" style="fill: none; stroke: #ff0000; stroke-width: 1.732051; stroke-linecap: square"/>
   </g>
   <g id="LineCollection_17">
    <path d="M 181.376433 81.134369 
L 181.376433 42.3292 
" clip-path="url(#pfc5d366bff)" style="fill: none; stroke: #000000; stroke-width: 0.5"/>
   </g>
   <g id="LineCollection_18">
    <path d="M 207.335888 81.134369 
L 207.335888 42.3292 
" clip-path="url(#pfc5d366bff)" style="fill: none; stroke: #000000; stroke-width: 0.5"/>
   </g>
   <g id="line2d_5">
    <path d="M 181.276948 151.14783 
L 181.451445 151.09218 
L 185.527053 150.769409 
L 188.692467 150.491158 
L 188.806651 150.468898 
L 191.704341 150.090478 
L 191.903109 150.045958 
L 193.027744 149.923528 
L 194.815126 149.734317 
L 200.49012 148.68148 
L 201.764802 148.131563 
L 202.170134 148.115249 
L 202.478864 147.90644 
L 202.788818 147.850857 
L 205.694188 147.028264 
L 206.231919 147.059774 
L 206.458816 146.988737 
L 206.68547 146.94113 
L 207.414431 146.879646 
L 207.606543 146.824421 
L 208.27437 146.725274 
L 208.558161 146.610349 
L 208.759586 146.518044 
L 208.977986 146.543385 
L 209.022492 146.585351 
L 209.074144 146.495243 
L 209.228709 146.534374 
L 209.621895 146.417792 
L 209.797293 146.27161 
L 209.905632 146.287686 
L 210.123876 146.413562 
L 210.550909 146.310326 
L 210.809434 146.336983 
L 211.039267 146.222283 
L 211.971528 146.518051 
L 212.036844 146.629729 
L 212.53451 146.703976 
L 212.741935 146.700946 
L 213.188039 147.065675 
L 213.208083 146.990418 
L 213.705194 146.904753 
L 213.811479 147.038344 
L 214.352439 147.031093 
L 214.353195 147.092219 
L 214.494045 147.174645 
L 214.888351 147.236574 
L 215.035166 147.244187 
L 215.400167 147.178741 
L 215.604145 147.207153 
L 215.611631 147.157286 
L 216.275603 147.174426 
L 216.393268 147.166934 
L 216.683984 147.237829 
L 216.886454 147.312083 
L 217.000353 147.246922 
L 217.897414 147.164028 
L 217.966514 147.123127 
L 217.998124 147.190546 
L 218.498068 147.121086 
L 218.638897 147.123664 
L 218.885971 147.22054 
L 218.895452 147.194326 
L 219.337343 146.991465 
L 219.54994 147.011177 
L 219.550001 147.005731 
L 219.793666 146.949766 
L 219.797985 146.993929 
L 219.911281 147.139444 
L 219.95835 147.061191 
L 220.091328 147.053104 
L 220.52409 147.11072 
L 220.959463 147.159648 
L 220.976583 147.21949 
L 221.045073 147.110983 
L 221.571874 147.085699 
L 221.615134 147.096791 
L 221.627789 147.086295 
L 222.019013 147.152135 
L 224.054887 147.341521 
L 224.055033 147.332626 
L 224.649018 147.704603 
L 226.157242 147.687366 
L 226.247866 147.730471 
L 226.288567 147.755512 
L 226.357145 147.711909 
L 226.463683 147.650529 
L 226.757825 147.661456 
L 228.413378 147.551638 
L 228.566304 147.538842 
L 230.25404 147.313011 
L 230.276271 147.215651 
L 230.34414 147.248645 
L 230.532553 147.246115 
L 230.754068 147.16628 
L 231.242796 147.220418 
L 233.140395 146.988711 
L 233.170941 146.932042 
L 233.176429 146.934969 
L 234.804379 146.921163 
L 234.907732 146.929999 
L 234.916588 146.918787 
L 236.063858 146.779887 
L 236.372156 146.782501 
L 237.34036 146.809551 
L 237.546413 146.788934 
L 237.861239 146.858184 
L 237.869523 146.777106 
L 238.074498 146.683292 
L 238.445905 146.469613 
L 239.780839 146.388549 
L 250.014898 146.157058 
L 250.014898 146.157058 
" clip-path="url(#pfc5d366bff)" style="fill: none; stroke: #000000; stroke-width: 1.732051; stroke-linecap: square"/>
   </g>
   <g id="LineCollection_19">
    <path d="M 181.276948 153.894062 
L 181.276948 115.088892 
" clip-path="url(#pfc5d366bff)" style="fill: none; stroke: #000000; stroke-width: 0.5"/>
   </g>
   <g id="LineCollection_20">
    <path d="M 250.014898 153.894062 
L 250.014898 115.088892 
" clip-path="url(#pfc5d366bff)" style="fill: none; stroke: #000000; stroke-width: 0.5"/>
   </g>
   <g id="line2d_6">
    <path d="M 181.276948 153.255213 
L 181.774951 153.225897 
L 196.815646 152.72058 
L 197.21458 152.750669 
L 198.620704 152.660401 
L 198.668257 152.630312 
L 199.705823 152.525 
L 201.13214 152.284286 
L 202.233188 152.178974 
L 202.337857 152.148884 
L 202.788818 152.073662 
L 204.50202 151.998438 
L 204.692265 151.90817 
L 206.326875 152.013483 
L 206.640149 152.058616 
L 209.596369 152.118795 
L 209.621895 152.239152 
L 209.710259 152.209063 
L 209.768087 152.163928 
L 209.843376 152.058616 
L 210.179968 152.013483 
L 210.333644 152.073662 
L 211.519772 152.013483 
L 211.693178 151.923215 
L 211.919001 152.013483 
L 212.036844 151.998438 
L 213.705569 152.209063 
L 213.770101 152.148884 
L 213.811479 152.194019 
L 214.062502 152.118795 
L 214.0723 152.163928 
L 214.129743 152.209063 
L 214.160933 152.148884 
L 214.166037 152.148884 
L 214.404971 152.043572 
L 214.560424 151.998438 
L 214.96637 152.058616 
L 215.44375 151.998438 
L 215.472353 151.923215 
L 215.545963 151.953304 
L 215.73906 151.878082 
L 215.744086 151.90817 
L 215.825246 151.983394 
L 215.835453 152.088706 
L 215.927061 152.028527 
L 216.082936 152.043572 
L 216.299252 152.163928 
L 217.214858 152.058616 
L 217.238342 152.043572 
L 217.316253 152.088706 
L 217.5779 152.194019 
L 217.707662 152.209063 
L 223.746564 152.314375 
L 223.866468 152.344464 
L 224.835744 152.239152 
L 224.866228 152.194019 
L 224.912366 152.209063 
L 225.53832 152.299331 
L 225.546882 152.344464 
L 225.606851 152.314375 
L 225.747547 152.314375 
L 227.189674 152.239152 
L 227.28099 152.148884 
L 227.926426 152.118795 
L 228.010686 152.013483 
L 228.13508 151.968349 
L 229.039227 151.863037 
L 229.153901 151.832947 
L 229.388424 151.938259 
L 229.900537 152.028527 
L 230.058794 151.938259 
L 230.566866 151.832947 
L 230.793059 151.667455 
L 231.030943 151.652411 
L 231.047475 151.71259 
L 231.095451 151.682501 
L 231.464078 151.772768 
L 231.604552 151.802858 
L 231.797407 151.817902 
L 231.799294 151.832947 
L 232.211047 151.757723 
L 232.483628 151.742679 
L 234.193585 151.501965 
L 234.245234 151.577189 
L 234.255371 151.547099 
L 234.614092 151.441786 
L 234.726482 151.336474 
L 234.735012 151.441786 
L 234.931299 151.336474 
L 234.992927 151.291341 
L 235.017432 151.336474 
L 235.49879 151.306385 
L 235.877752 151.09576 
L 236.919995 150.756214 
L 237.315492 150.816393 
L 237.683001 150.921705 
L 237.951079 150.96684 
L 238.129315 150.891616 
L 238.177839 150.921705 
L 238.210668 150.846482 
L 239.215633 150.737071 
L 239.305232 150.730233 
L 250.014898 150.514848 
L 250.014898 150.514848 
" clip-path="url(#pfc5d366bff)" style="fill: none; stroke: #ff0000; stroke-width: 1.732051; stroke-linecap: square"/>
   </g>
   <g id="LineCollection_21">
    <path d="M 181.276948 153.894062 
L 181.276948 115.088892 
" clip-path="url(#pfc5d366bff)" style="fill: none; stroke: #000000; stroke-width: 0.5"/>
   </g>
   <g id="LineCollection_22">
    <path d="M 250.014898 153.894062 
L 250.014898 115.088892 
" clip-path="url(#pfc5d366bff)" style="fill: none; stroke: #000000; stroke-width: 0.5"/>
   </g>
   <g id="line2d_7">
    <path d="M 207.368825 28.9887 
L 207.887353 29.264278 
L 207.992275 29.362706 
L 208.478535 29.638285 
L 208.588398 29.736713 
L 211.005312 30.642206 
L 211.365591 31.114641 
L 214.789368 33.025361 
L 214.873154 32.927673 
L 214.883678 33.008396 
L 214.929228 33.101007 
L 215.404212 33.259873 
L 215.738997 33.48548 
L 215.952963 33.527819 
L 216.101547 33.686454 
L 216.384269 33.81369 
L 216.575633 33.983196 
L 216.680388 34.066879 
L 217.250928 34.484312 
L 217.607941 34.661254 
L 217.928389 35.107773 
L 218.106687 35.168084 
L 218.83691 35.486568 
L 219.784522 35.918191 
L 220.98603 36.301311 
L 223.095261 37.869885 
L 223.326511 37.985267 
L 223.435013 38.239844 
L 223.888249 38.655149 
L 224.242394 38.754497 
L 224.386291 38.920389 
L 224.388933 38.911201 
L 225.164865 39.72695 
L 225.27028 39.987824 
L 225.401402 40.156029 
L 225.575466 40.836579 
L 225.68586 40.893351 
L 226.144631 41.178875 
L 226.487974 41.786394 
L 227.258383 42.137138 
L 227.276132 42.210303 
L 227.879577 42.678228 
L 228.209303 42.909484 
L 230.910448 44.274529 
L 231.00684 44.396648 
L 231.515989 44.46547 
L 231.811532 44.624666 
L 231.903635 44.731109 
L 232.35345 44.932551 
L 232.387366 44.997493 
L 232.974666 45.081836 
L 233.106293 45.199745 
L 233.59262 45.341455 
L 234.089804 45.689424 
L 234.303718 45.740373 
L 234.538265 45.811236 
L 234.723546 45.835303 
L 234.925409 45.966465 
L 235.15351 46.106591 
L 235.168705 46.155452 
L 235.531038 46.264532 
L 235.679733 46.36473 
L 236.205218 46.501374 
L 236.292722 46.613015 
L 236.790427 46.999795 
L 237.538747 47.200064 
L 237.653465 47.281764 
L 238.397637 47.542973 
L 238.438761 47.581669 
L 238.976377 47.750481 
L 238.99283 47.811046 
L 239.062958 47.790738 
L 239.751644 48.081877 
L 239.937862 48.164658 
L 240.469795 48.301095 
L 242.369059 48.834928 
L 243.047861 48.983646 
L 243.224396 49.06863 
L 244.515195 49.387311 
L 245.059113 49.557279 
L 246.098492 49.727248 
L 246.353415 49.790982 
L 247.997789 50.067179 
L 248.500379 50.152163 
L 249.178316 50.322126 
L 249.377232 50.385865 
L 251.147798 50.640812 
L 252.34843 50.78953 
L 254.764767 51.001988 
L 255.758315 51.086972 
L 267.040518 51.618117 
L 267.453495 51.681856 
L 270.400442 51.873064 
L 271.731467 51.979292 
L 272.57524 52.021787 
L 272.57524 52.021787 
" clip-path="url(#pfc5d366bff)" style="fill: none; stroke: #000000; stroke-width: 1.732051; stroke-linecap: square"/>
   </g>
   <g id="LineCollection_23">
    <path d="M 207.368825 56.881138 
L 207.368825 18.075969 
" clip-path="url(#pfc5d366bff)" style="fill: none; stroke: #000000; stroke-width: 0.5"/>
   </g>
   <g id="LineCollection_24">
    <path d="M 272.57524 56.881138 
L 272.57524 18.075969 
" clip-path="url(#pfc5d366bff)" style="fill: none; stroke: #000000; stroke-width: 0.5"/>
   </g>
   <g id="line2d_8">
    <path d="M 207.368825 45.224436 
L 213.143636 45.350932 
L 213.403898 45.636781 
L 213.655258 45.615253 
L 213.756617 45.456242 
L 213.76 45.471288 
L 214.11193 45.651826 
L 215.311095 45.342369 
L 215.548376 45.372455 
L 216.384269 45.432638 
L 216.468698 45.492816 
L 216.524393 45.318759 
L 216.587574 45.393982 
L 217.22536 45.393982 
L 217.250928 45.522902 
L 217.408307 45.522902 
L 217.643398 45.7657 
L 217.653832 45.735608 
L 217.79163 45.690476 
L 218.378238 45.7657 
L 218.76521 45.825877 
L 219.330117 45.720568 
L 219.629211 45.795791 
L 219.784522 45.720568 
L 220.267016 45.901101 
L 220.278732 45.802268 
L 220.80151 45.72705 
L 220.98603 45.74209 
L 221.149303 45.787228 
L 221.507579 45.80875 
L 221.720526 45.740008 
L 221.766703 45.853887 
L 222.262123 45.929111 
L 222.373971 46.049466 
L 222.894523 46.019374 
L 223.326511 45.845324 
L 223.429543 46.004329 
L 223.435013 45.965679 
L 223.537124 45.995771 
L 223.551177 46.109644 
L 223.648034 46.094598 
L 224.219139 46.245045 
L 224.341019 46.2837 
L 224.388933 46.449188 
L 224.45509 46.404056 
L 224.613361 46.328832 
L 225.096209 46.313786 
L 225.229552 46.116126 
L 225.68586 46.245045 
L 225.91493 46.290177 
L 225.963425 46.365406 
L 225.968531 46.35036 
L 226.144631 46.45567 
L 226.171988 46.485761 
L 226.317011 46.45567 
L 226.439296 46.545939 
L 226.487974 46.576025 
L 226.770185 46.651248 
L 226.858761 46.711432 
L 226.916735 46.756564 
L 227.133271 46.861873 
L 227.258383 47.005844 
L 227.276132 47.096107 
L 227.70762 47.111153 
L 227.738667 47.291692 
L 227.754018 47.2616 
L 227.90715 47.231509 
L 228.00641 47.057458 
L 228.05632 47.087544 
L 228.209303 47.207905 
L 228.752639 47.358352 
L 228.887407 47.457179 
L 229.581318 47.508793 
L 229.782837 47.629154 
L 230.27515 47.667804 
L 230.33529 47.562494 
L 230.508427 47.667804 
L 230.838603 47.856906 
L 230.963866 48.091135 
L 231.00684 48.19645 
L 232.35345 48.52743 
L 232.387366 48.557522 
L 232.601791 48.632745 
L 232.974666 48.731578 
L 233.051589 48.821842 
L 233.106293 48.791756 
L 233.736856 48.957243 
L 234.347233 49.017427 
L 234.900717 49.182914 
L 234.925409 49.053995 
L 235.024186 49.099126 
L 235.168705 49.099126 
L 235.817741 49.234528 
L 235.922348 49.42363 
L 236.404967 49.634255 
L 236.721648 50.079114 
L 236.790427 50.010372 
L 237.139882 50.025412 
L 237.373686 50.274693 
L 237.934133 50.214515 
L 237.967876 50.35848 
L 238.033168 50.313342 
L 238.18983 50.298302 
L 238.72993 50.313342 
L 238.830205 50.403612 
L 239.203854 50.562622 
L 239.302109 50.637846 
L 239.307771 50.6228 
L 239.455016 50.788293 
L 239.937862 51.007481 
L 240.532913 51.037573 
L 240.554148 51.127837 
L 241.529582 51.428731 
L 241.623491 51.503954 
L 241.817356 51.488908 
L 241.959385 51.647919 
L 242.02919 51.632873 
L 242.131648 51.776838 
L 242.81946 51.875278 
L 247.63838 52.938504 
L 248.724954 53.126132 
L 250.617773 53.480542 
L 257.504507 54.085117 
L 263.332551 54.356139 
L 272.57524 54.919023 
L 272.57524 54.919023 
" clip-path="url(#pfc5d366bff)" style="fill: none; stroke: #ff0000; stroke-width: 1.732051; stroke-linecap: square"/>
   </g>
   <g id="LineCollection_25">
    <path d="M 207.368825 56.881138 
L 207.368825 18.075969 
" clip-path="url(#pfc5d366bff)" style="fill: none; stroke: #000000; stroke-width: 0.5"/>
   </g>
   <g id="LineCollection_26">
    <path d="M 272.57524 56.881138 
L 272.57524 18.075969 
" clip-path="url(#pfc5d366bff)" style="fill: none; stroke: #000000; stroke-width: 0.5"/>
   </g>
   <g id="line2d_9">
    <path d="M 207.362306 82.833052 
L 207.372238 82.793755 
L 208.089133 82.616929 
L 208.221267 82.53834 
L 208.947379 82.243627 
L 208.971851 82.223979 
L 210.391812 81.988212 
L 210.413846 81.968563 
L 211.01087 81.811385 
L 211.337897 81.634559 
L 211.518916 81.457733 
L 212.004545 81.320198 
L 212.012737 81.300549 
L 212.746224 81.084431 
L 212.860533 81.005842 
L 214.358693 80.534303 
L 215.269593 80.37712 
L 215.635037 80.082413 
L 215.636781 80.062764 
L 215.907349 79.925235 
L 216.890196 79.65412 
L 217.291277 79.644371 
L 217.452837 79.495821 
L 217.485302 79.601836 
L 218.605586 79.703838 
L 218.703879 79.767774 
L 218.712256 79.752693 
L 219.196905 79.738445 
L 219.21829 79.685265 
L 219.702867 79.567367 
L 219.713233 79.652432 
L 220.476271 79.504414 
L 220.621425 79.591745 
L 221.005686 79.482302 
L 221.008517 79.551777 
L 221.086841 79.395039 
L 221.263412 79.45572 
L 221.269823 79.403186 
L 221.836873 79.318428 
L 222.083932 79.211765 
L 222.427919 79.167322 
L 222.512177 79.091953 
L 222.525771 79.120819 
L 222.613539 79.184727 
L 222.617137 79.120397 
L 222.792742 79.141509 
L 223.005785 79.405326 
L 223.03859 79.36168 
L 223.129237 79.445537 
L 223.243927 79.494381 
L 223.247149 79.43699 
L 223.914853 79.312443 
L 223.92255 79.380814 
L 223.984567 79.53997 
L 224.353394 79.592272 
L 224.612869 79.735121 
L 224.851462 79.745662 
L 225.34446 79.858026 
L 225.351172 79.908304 
L 225.501498 79.820157 
L 225.522525 79.934776 
L 225.82315 80.036732 
L 226.375143 80.498608 
L 226.602458 80.445283 
L 226.70561 80.672844 
L 227.058454 80.663928 
L 227.143448 80.80148 
L 227.272423 81.016216 
L 227.529902 81.120299 
L 227.826407 81.25562 
L 228.045316 81.320325 
L 228.115663 81.387309 
L 228.123263 81.358541 
L 228.16349 81.298976 
L 229.526529 81.466285 
L 229.776368 81.67344 
L 230.155703 81.86156 
L 230.348169 82.007514 
L 230.649901 82.154763 
L 230.764146 82.238995 
L 231.106192 82.473964 
L 231.593118 82.604231 
L 231.618791 82.736243 
L 232.188876 83.089757 
L 232.365748 83.272771 
L 232.930199 83.667236 
L 233.152553 83.689545 
L 233.586851 83.927214 
L 233.675254 84.014048 
L 233.796288 83.975798 
L 233.806485 84.075672 
L 234.676118 84.299659 
L 235.513489 84.473201 
L 235.585582 84.573631 
L 235.925797 84.729126 
L 236.159604 84.746525 
L 236.810172 84.871818 
L 237.616226 85.116282 
L 237.68231 85.054745 
L 238.500083 85.454316 
L 238.79396 85.531234 
L 238.8444 85.626517 
L 239.197363 85.737482 
L 239.764014 86.035999 
L 240.134603 85.994007 
L 240.175424 85.956554 
L 241.448221 86.595142 
L 241.863712 86.888715 
L 242.383264 86.921918 
L 244.149546 87.656814 
L 244.272176 87.608699 
L 244.458622 87.70177 
L 246.016531 88.098854 
L 246.812326 88.240593 
L 247.461961 88.434602 
L 248.354992 88.532253 
L 249.74466 88.795896 
L 249.803808 88.88705 
L 250.375818 88.895915 
L 250.425204 88.993701 
L 251.33558 89.216854 
L 251.471911 89.298157 
L 252.922738 89.511419 
L 253.206963 89.575662 
L 253.412984 89.730023 
L 254.866033 89.925735 
L 255.944867 90.108199 
L 256.464664 90.129167 
L 257.533051 90.228289 
L 257.540804 90.325751 
L 257.758473 90.353681 
L 259.049207 90.426701 
L 262.27664 90.99195 
L 263.22387 90.982973 
L 264.125429 91.098318 
L 267.595749 91.759879 
L 267.680732 91.82788 
L 271.606183 92.764782 
L 271.835885 92.840792 
L 272.204162 92.865836 
L 273.000263 93.114347 
L 273.437213 93.183748 
L 273.439979 93.222895 
L 273.739818 93.369144 
L 273.821055 93.440863 
L 274.399281 93.572711 
L 274.570741 93.646775 
L 274.887666 93.776845 
L 274.945959 93.839567 
L 274.949624 93.827904 
L 275.139784 93.912269 
L 275.792238 94.048503 
L 275.953895 94.104338 
L 277.133856 94.495172 
L 278.389206 94.913923 
L 278.404509 94.941841 
L 278.93715 95.109343 
L 279.244835 95.193093 
L 280.83286 95.639762 
L 281.499832 95.807264 
L 289.807312 97.566022 
L 294.101254 97.956858 
L 299.034866 98.096443 
L 299.034866 98.096443 
" clip-path="url(#pfc5d366bff)" style="fill: none; stroke: #000000; stroke-width: 1.732051; stroke-linecap: square"/>
   </g>
   <g id="LineCollection_27">
    <path d="M 207.362306 105.3876 
L 207.362306 66.582431 
" clip-path="url(#pfc5d366bff)" style="fill: none; stroke: #000000; stroke-width: 0.5"/>
   </g>
   <g id="LineCollection_28">
    <path d="M 299.034866 105.3876 
L 299.034866 66.582431 
" clip-path="url(#pfc5d366bff)" style="fill: none; stroke: #000000; stroke-width: 0.5"/>
   </g>
   <g id="line2d_10">
    <path d="M 207.362306 96.402226 
L 207.372238 96.376491 
L 208.295831 96.196348 
L 210.797648 95.771731 
L 211.110694 95.720261 
L 211.4618 95.552988 
L 211.518916 95.501518 
L 212.530712 95.347113 
L 212.638834 95.269909 
L 213.960358 94.999697 
L 214.358693 94.896758 
L 215.358331 94.755219 
L 215.780677 94.56221 
L 215.838718 94.510741 
L 216.392903 94.49575 
L 216.441119 94.570971 
L 216.473338 94.465658 
L 216.700437 94.360346 
L 217.210886 94.300168 
L 217.374886 94.201338 
L 217.385857 94.216381 
L 217.442635 94.270079 
L 217.485302 94.149721 
L 217.705726 94.224945 
L 217.714451 94.255034 
L 217.760611 94.050891 
L 218.830638 93.649082 
L 218.997048 93.558816 
L 219.21829 93.588905 
L 219.713233 93.778004 
L 220.331697 93.756479 
L 220.476271 93.816657 
L 220.602201 93.72639 
L 220.745214 93.333145 
L 221.263412 93.197744 
L 221.269823 93.242879 
L 221.616078 93.408369 
L 222.017125 93.234315 
L 222.083932 93.37828 
L 222.30991 93.318102 
L 222.427919 93.401889 
L 222.617137 93.31162 
L 222.792742 93.161173 
L 222.901093 93.296574 
L 223.384802 93.212787 
L 223.934791 93.318102 
L 223.984567 93.37828 
L 224.232953 93.249361 
L 224.612869 93.264404 
L 225.049465 93.150528 
L 225.065882 93.210705 
L 225.093577 93.150528 
L 225.247546 93.015126 
L 225.82315 93.210705 
L 226.300977 92.346913 
L 226.412118 92.385565 
L 226.650846 92.340434 
L 226.755921 92.598275 
L 227.058454 92.492962 
L 227.119236 92.606838 
L 227.152265 92.471434 
L 227.243685 92.327469 
L 227.529902 91.957834 
L 227.676531 92.093238 
L 229.119252 92.144852 
L 229.884089 92.091153 
L 229.892505 91.97728 
L 229.952194 92.037458 
L 230.206462 92.37052 
L 230.348169 92.295299 
L 231.357875 92.01593 
L 231.593118 91.865483 
L 231.618791 92.000887 
L 231.923718 92.159895 
L 231.943797 92.084674 
L 231.976105 92.189987 
L 232.032424 92.220075 
L 232.741632 92.007366 
L 232.754556 92.052501 
L 233.019724 91.947189 
L 233.219848 92.037458 
L 233.586851 92.022412 
L 233.796288 92.08259 
L 233.913511 91.992323 
L 233.991648 91.932143 
L 234.042408 91.962234 
L 234.286689 92.061065 
L 234.427762 91.880529 
L 234.47816 91.955752 
L 234.676118 91.880529 
L 235.513489 91.841876 
L 235.523297 91.743046 
L 235.585582 91.788178 
L 235.756099 91.932143 
L 236.998296 91.743046 
L 237.393865 91.895575 
L 237.459489 91.805305 
L 239.087316 91.388456 
L 239.274204 91.175747 
L 239.456956 91.205836 
L 239.583896 90.917906 
L 240.175424 90.653583 
L 240.624175 91.031779 
L 240.628662 90.947995 
L 240.732892 90.99313 
L 241.052033 90.932952 
L 241.652915 90.782505 
L 242.383264 90.911424 
L 242.903136 90.722324 
L 243.329827 90.662147 
L 244.458622 90.283947 
L 245.547375 90.238813 
L 245.614953 90.03467 
L 245.735596 89.974493 
L 245.785421 90.094848 
L 245.864333 90.019624 
L 246.016531 90.118457 
L 246.506334 90.03467 
L 246.663492 89.974493 
L 246.955292 90.118457 
L 247.988369 90.268905 
L 248.525357 90.109894 
L 249.00084 90.079802 
L 249.202684 89.890705 
L 249.428141 89.731694 
L 249.783402 89.626382 
L 249.803808 89.512506 
L 250.425204 89.400714 
L 250.941349 89.45441 
L 251.243826 89.538197 
L 251.471911 89.76595 
L 251.729679 89.76595 
L 251.760475 89.652073 
L 252.210667 89.787475 
L 252.446728 89.703687 
L 253.090892 89.598375 
L 253.213985 89.385669 
L 253.522316 89.082693 
L 253.591006 89.022515 
L 253.602349 89.067647 
L 254.295028 89.044037 
L 254.71214 89.013951 
L 255.63825 88.930164 
L 256.178149 89.044037 
L 256.44193 89.013951 
L 256.464664 89.097739 
L 257.125024 88.998906 
L 257.148253 88.938728 
L 257.758473 88.824849 
L 259.049207 88.67232 
L 259.335275 88.558447 
L 261.941404 88.270514 
L 261.964857 88.156638 
L 262.468774 88.156638 
L 262.865519 87.952496 
L 263.22387 87.952496 
L 264.890136 87.686088 
L 264.958101 87.610864 
L 265.314346 87.694652 
L 265.493537 87.512034 
L 267.941256 87.239147 
L 268.159996 87.307889 
L 268.38041 87.103746 
L 268.439235 87.17897 
L 269.89024 87.086619 
L 270.836322 86.93409 
L 271.124276 87.09958 
L 271.576047 86.994268 
L 271.67867 87.123187 
L 272.121911 87.267154 
L 272.204162 87.078055 
L 272.780843 86.903998 
L 273.363974 87.123187 
L 273.437213 87.168324 
L 273.439979 87.153278 
L 274.312255 87.078055 
L 274.568753 87.230584 
L 274.570741 87.125271 
L 274.815105 87.125271 
L 274.949624 87.275718 
L 275.139784 87.350939 
L 275.309808 87.305807 
L 275.580818 87.436293 
L 278.93715 87.657777 
L 280.143327 87.729763 
L 283.753105 87.901411 
L 286.548318 88.0343 
L 299.034866 88.25025 
L 299.034866 88.25025 
" clip-path="url(#pfc5d366bff)" style="fill: none; stroke: #ff0000; stroke-width: 1.732051; stroke-linecap: square"/>
   </g>
   <g id="LineCollection_29">
    <path d="M 207.362306 105.3876 
L 207.362306 66.582431 
" clip-path="url(#pfc5d366bff)" style="fill: none; stroke: #000000; stroke-width: 0.5"/>
   </g>
   <g id="LineCollection_30">
    <path d="M 299.034866 105.3876 
L 299.034866 66.582431 
" clip-path="url(#pfc5d366bff)" style="fill: none; stroke: #000000; stroke-width: 0.5"/>
   </g>
   <g id="text_1">
    <!-- IRS -->
    <g transform="translate(252.111816 134.491477)scale(0.144 -0.144)">
     <defs>
      <path id="DejaVuSans-49" d="M 628 4666 
L 1259 4666 
L 1259 0 
L 628 0 
L 628 4666 
z
" transform="scale(0.015625)"/>
      <path id="DejaVuSans-52" d="M 2841 2188 
Q 3044 2119 3236 1894 
Q 3428 1669 3622 1275 
L 4263 0 
L 3584 0 
L 2988 1197 
Q 2756 1666 2539 1819 
Q 2322 1972 1947 1972 
L 1259 1972 
L 1259 0 
L 628 0 
L 628 4666 
L 2053 4666 
Q 2853 4666 3247 4331 
Q 3641 3997 3641 3322 
Q 3641 2881 3436 2590 
Q 3231 2300 2841 2188 
z
M 1259 4147 
L 1259 2491 
L 2053 2491 
Q 2509 2491 2742 2702 
Q 2975 2913 2975 3322 
Q 2975 3731 2742 3939 
Q 2509 4147 2053 4147 
L 1259 4147 
z
" transform="scale(0.015625)"/>
      <path id="DejaVuSans-53" d="M 3425 4513 
L 3425 3897 
Q 3066 4069 2747 4153 
Q 2428 4238 2131 4238 
Q 1616 4238 1336 4038 
Q 1056 3838 1056 3469 
Q 1056 3159 1242 3001 
Q 1428 2844 1947 2747 
L 2328 2669 
Q 3034 2534 3370 2195 
Q 3706 1856 3706 1288 
Q 3706 609 3251 259 
Q 2797 -91 1919 -91 
Q 1588 -91 1214 -16 
Q 841 59 441 206 
L 441 856 
Q 825 641 1194 531 
Q 1563 422 1919 422 
Q 2459 422 2753 634 
Q 3047 847 3047 1241 
Q 3047 1584 2836 1778 
Q 2625 1972 2144 2069 
L 1759 2144 
Q 1053 2284 737 2584 
Q 422 2884 422 3419 
Q 422 4038 858 4394 
Q 1294 4750 2059 4750 
Q 2388 4750 2728 4690 
Q 3069 4631 3425 4513 
z
" transform="scale(0.015625)"/>
     </defs>
     <use xlink:href="#DejaVuSans-49"/>
     <use xlink:href="#DejaVuSans-52" x="29.492188"/>
     <use xlink:href="#DejaVuSans-53" x="98.974609"/>
    </g>
   </g>
   <g id="text_2">
    <!-- Medulla -->
    <g transform="translate(274.897761 37.478554)scale(0.144 -0.144)">
     <defs>
      <path id="DejaVuSans-4d" d="M 628 4666 
L 1569 4666 
L 2759 1491 
L 3956 4666 
L 4897 4666 
L 4897 0 
L 4281 0 
L 4281 4097 
L 3078 897 
L 2444 897 
L 1241 4097 
L 1241 0 
L 628 0 
L 628 4666 
z
" transform="scale(0.015625)"/>
      <path id="DejaVuSans-65" d="M 3597 1894 
L 3597 1613 
L 953 1613 
Q 991 1019 1311 708 
Q 1631 397 2203 397 
Q 2534 397 2845 478 
Q 3156 559 3463 722 
L 3463 178 
Q 3153 47 2828 -22 
Q 2503 -91 2169 -91 
Q 1331 -91 842 396 
Q 353 884 353 1716 
Q 353 2575 817 3079 
Q 1281 3584 2069 3584 
Q 2775 3584 3186 3129 
Q 3597 2675 3597 1894 
z
M 3022 2063 
Q 3016 2534 2758 2815 
Q 2500 3097 2075 3097 
Q 1594 3097 1305 2825 
Q 1016 2553 972 2059 
L 3022 2063 
z
" transform="scale(0.015625)"/>
      <path id="DejaVuSans-64" d="M 2906 2969 
L 2906 4863 
L 3481 4863 
L 3481 0 
L 2906 0 
L 2906 525 
Q 2725 213 2448 61 
Q 2172 -91 1784 -91 
Q 1150 -91 751 415 
Q 353 922 353 1747 
Q 353 2572 751 3078 
Q 1150 3584 1784 3584 
Q 2172 3584 2448 3432 
Q 2725 3281 2906 2969 
z
M 947 1747 
Q 947 1113 1208 752 
Q 1469 391 1925 391 
Q 2381 391 2643 752 
Q 2906 1113 2906 1747 
Q 2906 2381 2643 2742 
Q 2381 3103 1925 3103 
Q 1469 3103 1208 2742 
Q 947 2381 947 1747 
z
" transform="scale(0.015625)"/>
      <path id="DejaVuSans-75" d="M 544 1381 
L 544 3500 
L 1119 3500 
L 1119 1403 
Q 1119 906 1312 657 
Q 1506 409 1894 409 
Q 2359 409 2629 706 
Q 2900 1003 2900 1516 
L 2900 3500 
L 3475 3500 
L 3475 0 
L 2900 0 
L 2900 538 
Q 2691 219 2414 64 
Q 2138 -91 1772 -91 
Q 1169 -91 856 284 
Q 544 659 544 1381 
z
M 1991 3584 
L 1991 3584 
z
" transform="scale(0.015625)"/>
      <path id="DejaVuSans-6c" d="M 603 4863 
L 1178 4863 
L 1178 0 
L 603 0 
L 603 4863 
z
" transform="scale(0.015625)"/>
      <path id="DejaVuSans-61" d="M 2194 1759 
Q 1497 1759 1228 1600 
Q 959 1441 959 1056 
Q 959 750 1161 570 
Q 1363 391 1709 391 
Q 2188 391 2477 730 
Q 2766 1069 2766 1631 
L 2766 1759 
L 2194 1759 
z
M 3341 1997 
L 3341 0 
L 2766 0 
L 2766 531 
Q 2569 213 2275 61 
Q 1981 -91 1556 -91 
Q 1019 -91 701 211 
Q 384 513 384 1019 
Q 384 1609 779 1909 
Q 1175 2209 1959 2209 
L 2766 2209 
L 2766 2266 
Q 2766 2663 2505 2880 
Q 2244 3097 1772 3097 
Q 1472 3097 1187 3025 
Q 903 2953 641 2809 
L 641 3341 
Q 956 3463 1253 3523 
Q 1550 3584 1831 3584 
Q 2591 3584 2966 3190 
Q 3341 2797 3341 1997 
z
" transform="scale(0.015625)"/>
     </defs>
     <use xlink:href="#DejaVuSans-4d"/>
     <use xlink:href="#DejaVuSans-65" x="86.279297"/>
     <use xlink:href="#DejaVuSans-64" x="147.802734"/>
     <use xlink:href="#DejaVuSans-75" x="211.279297"/>
     <use xlink:href="#DejaVuSans-6c" x="274.658203"/>
     <use xlink:href="#DejaVuSans-6c" x="302.441406"/>
     <use xlink:href="#DejaVuSans-61" x="330.224609"/>
    </g>
   </g>
   <g id="text_3">
    <!-- Cortex -->
    <g transform="translate(301.621983 85.985015)scale(0.144 -0.144)">
     <defs>
      <path id="DejaVuSans-43" d="M 4122 4306 
L 4122 3641 
Q 3803 3938 3442 4084 
Q 3081 4231 2675 4231 
Q 1875 4231 1450 3742 
Q 1025 3253 1025 2328 
Q 1025 1406 1450 917 
Q 1875 428 2675 428 
Q 3081 428 3442 575 
Q 3803 722 4122 1019 
L 4122 359 
Q 3791 134 3420 21 
Q 3050 -91 2638 -91 
Q 1578 -91 968 557 
Q 359 1206 359 2328 
Q 359 3453 968 4101 
Q 1578 4750 2638 4750 
Q 3056 4750 3426 4639 
Q 3797 4528 4122 4306 
z
" transform="scale(0.015625)"/>
      <path id="DejaVuSans-6f" d="M 1959 3097 
Q 1497 3097 1228 2736 
Q 959 2375 959 1747 
Q 959 1119 1226 758 
Q 1494 397 1959 397 
Q 2419 397 2687 759 
Q 2956 1122 2956 1747 
Q 2956 2369 2687 2733 
Q 2419 3097 1959 3097 
z
M 1959 3584 
Q 2709 3584 3137 3096 
Q 3566 2609 3566 1747 
Q 3566 888 3137 398 
Q 2709 -91 1959 -91 
Q 1206 -91 779 398 
Q 353 888 353 1747 
Q 353 2609 779 3096 
Q 1206 3584 1959 3584 
z
" transform="scale(0.015625)"/>
      <path id="DejaVuSans-72" d="M 2631 2963 
Q 2534 3019 2420 3045 
Q 2306 3072 2169 3072 
Q 1681 3072 1420 2755 
Q 1159 2438 1159 1844 
L 1159 0 
L 581 0 
L 581 3500 
L 1159 3500 
L 1159 2956 
Q 1341 3275 1631 3429 
Q 1922 3584 2338 3584 
Q 2397 3584 2469 3576 
Q 2541 3569 2628 3553 
L 2631 2963 
z
" transform="scale(0.015625)"/>
      <path id="DejaVuSans-74" d="M 1172 4494 
L 1172 3500 
L 2356 3500 
L 2356 3053 
L 1172 3053 
L 1172 1153 
Q 1172 725 1289 603 
Q 1406 481 1766 481 
L 2356 481 
L 2356 0 
L 1766 0 
Q 1100 0 847 248 
Q 594 497 594 1153 
L 594 3053 
L 172 3053 
L 172 3500 
L 594 3500 
L 594 4494 
L 1172 4494 
z
" transform="scale(0.015625)"/>
      <path id="DejaVuSans-78" d="M 3513 3500 
L 2247 1797 
L 3578 0 
L 2900 0 
L 1881 1375 
L 863 0 
L 184 0 
L 1544 1831 
L 300 3500 
L 978 3500 
L 1906 2253 
L 2834 3500 
L 3513 3500 
z
" transform="scale(0.015625)"/>
     </defs>
     <use xlink:href="#DejaVuSans-43"/>
     <use xlink:href="#DejaVuSans-6f" x="69.824219"/>
     <use xlink:href="#DejaVuSans-72" x="131.005859"/>
     <use xlink:href="#DejaVuSans-74" x="172.119141"/>
     <use xlink:href="#DejaVuSans-65" x="211.328125"/>
     <use xlink:href="#DejaVuSans-78" x="271.101562"/>
    </g>
   </g>
   <g id="text_4">
    <!-- Time -->
    <g transform="translate(300.328425 168.446)scale(0.12 -0.12)">
     <defs>
      <path id="DejaVuSans-54" d="M -19 4666 
L 3928 4666 
L 3928 4134 
L 2272 4134 
L 2272 0 
L 1638 0 
L 1638 4134 
L -19 4134 
L -19 4666 
z
" transform="scale(0.015625)"/>
      <path id="DejaVuSans-69" d="M 603 3500 
L 1178 3500 
L 1178 0 
L 603 0 
L 603 3500 
z
M 603 4863 
L 1178 4863 
L 1178 4134 
L 603 4134 
L 603 4863 
z
" transform="scale(0.015625)"/>
      <path id="DejaVuSans-6d" d="M 3328 2828 
Q 3544 3216 3844 3400 
Q 4144 3584 4550 3584 
Q 5097 3584 5394 3201 
Q 5691 2819 5691 2113 
L 5691 0 
L 5113 0 
L 5113 2094 
Q 5113 2597 4934 2840 
Q 4756 3084 4391 3084 
Q 3944 3084 3684 2787 
Q 3425 2491 3425 1978 
L 3425 0 
L 2847 0 
L 2847 2094 
Q 2847 2600 2669 2842 
Q 2491 3084 2119 3084 
Q 1678 3084 1418 2786 
Q 1159 2488 1159 1978 
L 1159 0 
L 581 0 
L 581 3500 
L 1159 3500 
L 1159 2956 
Q 1356 3278 1631 3431 
Q 1906 3584 2284 3584 
Q 2666 3584 2933 3390 
Q 3200 3197 3328 2828 
z
" transform="scale(0.015625)"/>
     </defs>
     <use xlink:href="#DejaVuSans-54"/>
     <use xlink:href="#DejaVuSans-69" x="57.958984"/>
     <use xlink:href="#DejaVuSans-6d" x="85.742188"/>
     <use xlink:href="#DejaVuSans-65" x="183.154297"/>
    </g>
   </g>
   <g id="legend_1">
    <g id="patch_2">
     <path d="M 18.456477 196.246425 
L 42.456477 196.246425 
L 42.456477 187.846425 
L 18.456477 187.846425 
z
" style="fill: #ff0000; stroke: #ff0000; stroke-linejoin: miter"/>
    </g>
    <g id="text_5">
     <!-- LEF1: expression -->
     <g transform="translate(52.056477 196.246425)scale(0.12 -0.12)">
      <defs>
       <path id="DejaVuSans-4c" d="M 628 4666 
L 1259 4666 
L 1259 531 
L 3531 531 
L 3531 0 
L 628 0 
L 628 4666 
z
" transform="scale(0.015625)"/>
       <path id="DejaVuSans-45" d="M 628 4666 
L 3578 4666 
L 3578 4134 
L 1259 4134 
L 1259 2753 
L 3481 2753 
L 3481 2222 
L 1259 2222 
L 1259 531 
L 3634 531 
L 3634 0 
L 628 0 
L 628 4666 
z
" transform="scale(0.015625)"/>
       <path id="DejaVuSans-46" d="M 628 4666 
L 3309 4666 
L 3309 4134 
L 1259 4134 
L 1259 2759 
L 3109 2759 
L 3109 2228 
L 1259 2228 
L 1259 0 
L 628 0 
L 628 4666 
z
" transform="scale(0.015625)"/>
       <path id="DejaVuSans-31" d="M 794 531 
L 1825 531 
L 1825 4091 
L 703 3866 
L 703 4441 
L 1819 4666 
L 2450 4666 
L 2450 531 
L 3481 531 
L 3481 0 
L 794 0 
L 794 531 
z
" transform="scale(0.015625)"/>
       <path id="DejaVuSans-3a" d="M 750 794 
L 1409 794 
L 1409 0 
L 750 0 
L 750 794 
z
M 750 3309 
L 1409 3309 
L 1409 2516 
L 750 2516 
L 750 3309 
z
" transform="scale(0.015625)"/>
       <path id="DejaVuSans-20" transform="scale(0.015625)"/>
       <path id="DejaVuSans-70" d="M 1159 525 
L 1159 -1331 
L 581 -1331 
L 581 3500 
L 1159 3500 
L 1159 2969 
Q 1341 3281 1617 3432 
Q 1894 3584 2278 3584 
Q 2916 3584 3314 3078 
Q 3713 2572 3713 1747 
Q 3713 922 3314 415 
Q 2916 -91 2278 -91 
Q 1894 -91 1617 61 
Q 1341 213 1159 525 
z
M 3116 1747 
Q 3116 2381 2855 2742 
Q 2594 3103 2138 3103 
Q 1681 3103 1420 2742 
Q 1159 2381 1159 1747 
Q 1159 1113 1420 752 
Q 1681 391 2138 391 
Q 2594 391 2855 752 
Q 3116 1113 3116 1747 
z
" transform="scale(0.015625)"/>
       <path id="DejaVuSans-73" d="M 2834 3397 
L 2834 2853 
Q 2591 2978 2328 3040 
Q 2066 3103 1784 3103 
Q 1356 3103 1142 2972 
Q 928 2841 928 2578 
Q 928 2378 1081 2264 
Q 1234 2150 1697 2047 
L 1894 2003 
Q 2506 1872 2764 1633 
Q 3022 1394 3022 966 
Q 3022 478 2636 193 
Q 2250 -91 1575 -91 
Q 1294 -91 989 -36 
Q 684 19 347 128 
L 347 722 
Q 666 556 975 473 
Q 1284 391 1588 391 
Q 1994 391 2212 530 
Q 2431 669 2431 922 
Q 2431 1156 2273 1281 
Q 2116 1406 1581 1522 
L 1381 1569 
Q 847 1681 609 1914 
Q 372 2147 372 2553 
Q 372 3047 722 3315 
Q 1072 3584 1716 3584 
Q 2034 3584 2315 3537 
Q 2597 3491 2834 3397 
z
" transform="scale(0.015625)"/>
       <path id="DejaVuSans-6e" d="M 3513 2113 
L 3513 0 
L 2938 0 
L 2938 2094 
Q 2938 2591 2744 2837 
Q 2550 3084 2163 3084 
Q 1697 3084 1428 2787 
Q 1159 2491 1159 1978 
L 1159 0 
L 581 0 
L 581 3500 
L 1159 3500 
L 1159 2956 
Q 1366 3272 1645 3428 
Q 1925 3584 2291 3584 
Q 2894 3584 3203 3211 
Q 3513 2838 3513 2113 
z
" transform="scale(0.015625)"/>
      </defs>
      <use xlink:href="#DejaVuSans-4c"/>
      <use xlink:href="#DejaVuSans-45" x="55.712891"/>
      <use xlink:href="#DejaVuSans-46" x="118.896484"/>
      <use xlink:href="#DejaVuSans-31" x="176.416016"/>
      <use xlink:href="#DejaVuSans-3a" x="240.039062"/>
      <use xlink:href="#DejaVuSans-20" x="273.730469"/>
      <use xlink:href="#DejaVuSans-65" x="305.517578"/>
      <use xlink:href="#DejaVuSans-78" x="365.291016"/>
      <use xlink:href="#DejaVuSans-70" x="424.470703"/>
      <use xlink:href="#DejaVuSans-72" x="487.947266"/>
      <use xlink:href="#DejaVuSans-65" x="526.810547"/>
      <use xlink:href="#DejaVuSans-73" x="588.333984"/>
      <use xlink:href="#DejaVuSans-73" x="640.433594"/>
      <use xlink:href="#DejaVuSans-69" x="692.533203"/>
      <use xlink:href="#DejaVuSans-6f" x="720.316406"/>
      <use xlink:href="#DejaVuSans-6e" x="781.498047"/>
     </g>
    </g>
    <g id="patch_3">
     <path d="M 177.443352 196.246425 
L 201.443352 196.246425 
L 201.443352 187.846425 
L 177.443352 187.846425 
z
" style="stroke: #000000; stroke-linejoin: miter"/>
    </g>
    <g id="text_6">
     <!-- LEF1: accessibility -->
     <g transform="translate(211.043352 196.246425)scale(0.12 -0.12)">
      <defs>
       <path id="DejaVuSans-63" d="M 3122 3366 
L 3122 2828 
Q 2878 2963 2633 3030 
Q 2388 3097 2138 3097 
Q 1578 3097 1268 2742 
Q 959 2388 959 1747 
Q 959 1106 1268 751 
Q 1578 397 2138 397 
Q 2388 397 2633 464 
Q 2878 531 3122 666 
L 3122 134 
Q 2881 22 2623 -34 
Q 2366 -91 2075 -91 
Q 1284 -91 818 406 
Q 353 903 353 1747 
Q 353 2603 823 3093 
Q 1294 3584 2113 3584 
Q 2378 3584 2631 3529 
Q 2884 3475 3122 3366 
z
" transform="scale(0.015625)"/>
       <path id="DejaVuSans-62" d="M 3116 1747 
Q 3116 2381 2855 2742 
Q 2594 3103 2138 3103 
Q 1681 3103 1420 2742 
Q 1159 2381 1159 1747 
Q 1159 1113 1420 752 
Q 1681 391 2138 391 
Q 2594 391 2855 752 
Q 3116 1113 3116 1747 
z
M 1159 2969 
Q 1341 3281 1617 3432 
Q 1894 3584 2278 3584 
Q 2916 3584 3314 3078 
Q 3713 2572 3713 1747 
Q 3713 922 3314 415 
Q 2916 -91 2278 -91 
Q 1894 -91 1617 61 
Q 1341 213 1159 525 
L 1159 0 
L 581 0 
L 581 4863 
L 1159 4863 
L 1159 2969 
z
" transform="scale(0.015625)"/>
       <path id="DejaVuSans-79" d="M 2059 -325 
Q 1816 -950 1584 -1140 
Q 1353 -1331 966 -1331 
L 506 -1331 
L 506 -850 
L 844 -850 
Q 1081 -850 1212 -737 
Q 1344 -625 1503 -206 
L 1606 56 
L 191 3500 
L 800 3500 
L 1894 763 
L 2988 3500 
L 3597 3500 
L 2059 -325 
z
" transform="scale(0.015625)"/>
      </defs>
      <use xlink:href="#DejaVuSans-4c"/>
      <use xlink:href="#DejaVuSans-45" x="55.712891"/>
      <use xlink:href="#DejaVuSans-46" x="118.896484"/>
      <use xlink:href="#DejaVuSans-31" x="176.416016"/>
      <use xlink:href="#DejaVuSans-3a" x="240.039062"/>
      <use xlink:href="#DejaVuSans-20" x="273.730469"/>
      <use xlink:href="#DejaVuSans-61" x="305.517578"/>
      <use xlink:href="#DejaVuSans-63" x="366.796875"/>
      <use xlink:href="#DejaVuSans-63" x="421.777344"/>
      <use xlink:href="#DejaVuSans-65" x="476.757812"/>
      <use xlink:href="#DejaVuSans-73" x="538.28125"/>
      <use xlink:href="#DejaVuSans-73" x="590.380859"/>
      <use xlink:href="#DejaVuSans-69" x="642.480469"/>
      <use xlink:href="#DejaVuSans-62" x="670.263672"/>
      <use xlink:href="#DejaVuSans-69" x="733.740234"/>
      <use xlink:href="#DejaVuSans-6c" x="761.523438"/>
      <use xlink:href="#DejaVuSans-69" x="789.306641"/>
      <use xlink:href="#DejaVuSans-74" x="817.089844"/>
      <use xlink:href="#DejaVuSans-79" x="856.298828"/>
     </g>
    </g>
   </g>
  </g>
 </g>
 <defs>
  <clipPath id="pfc5d366bff">
   <rect x="27.3875" y="10.8" width="284.582955" height="157.646"/>
  </clipPath>
 </defs>
</svg>
