<?xml version="1.0" encoding="utf-8" standalone="no"?>
<!DOCTYPE svg PUBLIC "-//W3C//DTD SVG 1.1//EN"
  "http://www.w3.org/Graphics/SVG/1.1/DTD/svg11.dtd">
<svg height="288pt" version="1.1" viewBox="0 0 720 288" width="720pt" xmlns="http://www.w3.org/2000/svg" xmlns:xlink="http://www.w3.org/1999/xlink">
 <metadata>
  <rdf:RDF xmlns:cc="http://creativecommons.org/ns#" xmlns:dc="http://purl.org/dc/elements/1.1/" xmlns:rdf="http://www.w3.org/1999/02/22-rdf-syntax-ns#">
   <cc:Work>
    <dc:type rdf:resource="http://purl.org/dc/dcmitype/StillImage"/>
    <dc:date>2021-11-17T10:25:55.513267</dc:date>
    <dc:format>image/svg+xml</dc:format>
    <dc:creator>
     <cc:Agent>
      <dc:title>Matplotlib v3.4.2, https://matplotlib.org/</dc:title>
     </cc:Agent>
    </dc:creator>
   </cc:Work>
  </rdf:RDF>
 </metadata>
 <defs>
  <style type="text/css">*{stroke-linecap:butt;stroke-linejoin:round;}</style>
 </defs>
 <g id="figure_1">
  <g id="patch_1">
   <path d="M 0 288 
L 720 288 
L 720 0 
L 0 0 
z
" style="fill:none;"/>
  </g>
  <g id="axes_1">
   <g id="patch_2">
    <path d="M 201.925 246.2 
L 709.2 246.2 
L 709.2 26.8 
L 201.925 26.8 
z
" style="fill:#ffffff;"/>
   </g>
   <g id="patch_3">
    <path clip-path="url(#pa1dacebe67)" d="M 201.925 36.772727 
L 685.044048 36.772727 
L 685.044048 70.015152 
L 201.925 70.015152 
z
" style="fill:#d3d3d3;"/>
   </g>
   <g id="patch_4">
    <path clip-path="url(#pa1dacebe67)" d="M 201.925 78.325758 
L 548.555403 78.325758 
L 548.555403 111.568182 
L 201.925 111.568182 
z
" style="fill:#d3d3d3;"/>
   </g>
   <g id="patch_5">
    <path clip-path="url(#pa1dacebe67)" d="M 201.925 119.878788 
L 402.777159 119.878788 
L 402.777159 153.121212 
L 201.925 153.121212 
z
" style="fill:#d3d3d3;"/>
   </g>
   <g id="patch_6">
    <path clip-path="url(#pa1dacebe67)" d="M 201.925 161.431818 
L 392.093908 161.431818 
L 392.093908 194.674242 
L 201.925 194.674242 
z
" style="fill:#d3d3d3;"/>
   </g>
   <g id="patch_7">
    <path clip-path="url(#pa1dacebe67)" d="M 201.925 202.984848 
L 387.343122 202.984848 
L 387.343122 236.227273 
L 201.925 236.227273 
z
" style="fill:#d3d3d3;"/>
   </g>
   <g id="matplotlib.axis_1">
    <g id="xtick_1">
     <g id="line2d_1">
      <defs>
       <path d="M 0 0 
L 0 3.5 
" id="m16b51fc29f" style="stroke:#000000;stroke-width:0.8;"/>
      </defs>
      <g>
       <use style="stroke:#000000;stroke-width:0.8;" x="201.925" xlink:href="#m16b51fc29f" y="246.2"/>
      </g>
     </g>
     <g id="text_1">
      <!-- 0 -->
      <g transform="translate(198.74375 260.798437)scale(0.1 -0.1)">
       <defs>
        <path d="M 2034 4250 
Q 1547 4250 1301 3770 
Q 1056 3291 1056 2328 
Q 1056 1369 1301 889 
Q 1547 409 2034 409 
Q 2525 409 2770 889 
Q 3016 1369 3016 2328 
Q 3016 3291 2770 3770 
Q 2525 4250 2034 4250 
z
M 2034 4750 
Q 2819 4750 3233 4129 
Q 3647 3509 3647 2328 
Q 3647 1150 3233 529 
Q 2819 -91 2034 -91 
Q 1250 -91 836 529 
Q 422 1150 422 2328 
Q 422 3509 836 4129 
Q 1250 4750 2034 4750 
z
" id="DejaVuSans-30" transform="scale(0.015625)"/>
       </defs>
       <use xlink:href="#DejaVuSans-30"/>
      </g>
     </g>
    </g>
    <g id="xtick_2">
     <g id="line2d_2">
      <g>
       <use style="stroke:#000000;stroke-width:0.8;" x="268.74091" xlink:href="#m16b51fc29f" y="246.2"/>
      </g>
     </g>
     <g id="text_2">
      <!-- 1 -->
      <g transform="translate(265.55966 260.798437)scale(0.1 -0.1)">
       <defs>
        <path d="M 794 531 
L 1825 531 
L 1825 4091 
L 703 3866 
L 703 4441 
L 1819 4666 
L 2450 4666 
L 2450 531 
L 3481 531 
L 3481 0 
L 794 0 
L 794 531 
z
" id="DejaVuSans-31" transform="scale(0.015625)"/>
       </defs>
       <use xlink:href="#DejaVuSans-31"/>
      </g>
     </g>
    </g>
    <g id="xtick_3">
     <g id="line2d_3">
      <g>
       <use style="stroke:#000000;stroke-width:0.8;" x="335.55682" xlink:href="#m16b51fc29f" y="246.2"/>
      </g>
     </g>
     <g id="text_3">
      <!-- 2 -->
      <g transform="translate(332.37557 260.798437)scale(0.1 -0.1)">
       <defs>
        <path d="M 1228 531 
L 3431 531 
L 3431 0 
L 469 0 
L 469 531 
Q 828 903 1448 1529 
Q 2069 2156 2228 2338 
Q 2531 2678 2651 2914 
Q 2772 3150 2772 3378 
Q 2772 3750 2511 3984 
Q 2250 4219 1831 4219 
Q 1534 4219 1204 4116 
Q 875 4013 500 3803 
L 500 4441 
Q 881 4594 1212 4672 
Q 1544 4750 1819 4750 
Q 2544 4750 2975 4387 
Q 3406 4025 3406 3419 
Q 3406 3131 3298 2873 
Q 3191 2616 2906 2266 
Q 2828 2175 2409 1742 
Q 1991 1309 1228 531 
z
" id="DejaVuSans-32" transform="scale(0.015625)"/>
       </defs>
       <use xlink:href="#DejaVuSans-32"/>
      </g>
     </g>
    </g>
    <g id="xtick_4">
     <g id="line2d_4">
      <g>
       <use style="stroke:#000000;stroke-width:0.8;" x="402.37273" xlink:href="#m16b51fc29f" y="246.2"/>
      </g>
     </g>
     <g id="text_4">
      <!-- 3 -->
      <g transform="translate(399.19148 260.798437)scale(0.1 -0.1)">
       <defs>
        <path d="M 2597 2516 
Q 3050 2419 3304 2112 
Q 3559 1806 3559 1356 
Q 3559 666 3084 287 
Q 2609 -91 1734 -91 
Q 1441 -91 1130 -33 
Q 819 25 488 141 
L 488 750 
Q 750 597 1062 519 
Q 1375 441 1716 441 
Q 2309 441 2620 675 
Q 2931 909 2931 1356 
Q 2931 1769 2642 2001 
Q 2353 2234 1838 2234 
L 1294 2234 
L 1294 2753 
L 1863 2753 
Q 2328 2753 2575 2939 
Q 2822 3125 2822 3475 
Q 2822 3834 2567 4026 
Q 2313 4219 1838 4219 
Q 1578 4219 1281 4162 
Q 984 4106 628 3988 
L 628 4550 
Q 988 4650 1302 4700 
Q 1616 4750 1894 4750 
Q 2613 4750 3031 4423 
Q 3450 4097 3450 3541 
Q 3450 3153 3228 2886 
Q 3006 2619 2597 2516 
z
" id="DejaVuSans-33" transform="scale(0.015625)"/>
       </defs>
       <use xlink:href="#DejaVuSans-33"/>
      </g>
     </g>
    </g>
    <g id="xtick_5">
     <g id="line2d_5">
      <g>
       <use style="stroke:#000000;stroke-width:0.8;" x="469.18864" xlink:href="#m16b51fc29f" y="246.2"/>
      </g>
     </g>
     <g id="text_5">
      <!-- 4 -->
      <g transform="translate(466.00739 260.798437)scale(0.1 -0.1)">
       <defs>
        <path d="M 2419 4116 
L 825 1625 
L 2419 1625 
L 2419 4116 
z
M 2253 4666 
L 3047 4666 
L 3047 1625 
L 3713 1625 
L 3713 1100 
L 3047 1100 
L 3047 0 
L 2419 0 
L 2419 1100 
L 313 1100 
L 313 1709 
L 2253 4666 
z
" id="DejaVuSans-34" transform="scale(0.015625)"/>
       </defs>
       <use xlink:href="#DejaVuSans-34"/>
      </g>
     </g>
    </g>
    <g id="xtick_6">
     <g id="line2d_6">
      <g>
       <use style="stroke:#000000;stroke-width:0.8;" x="536.00455" xlink:href="#m16b51fc29f" y="246.2"/>
      </g>
     </g>
     <g id="text_6">
      <!-- 5 -->
      <g transform="translate(532.8233 260.798437)scale(0.1 -0.1)">
       <defs>
        <path d="M 691 4666 
L 3169 4666 
L 3169 4134 
L 1269 4134 
L 1269 2991 
Q 1406 3038 1543 3061 
Q 1681 3084 1819 3084 
Q 2600 3084 3056 2656 
Q 3513 2228 3513 1497 
Q 3513 744 3044 326 
Q 2575 -91 1722 -91 
Q 1428 -91 1123 -41 
Q 819 9 494 109 
L 494 744 
Q 775 591 1075 516 
Q 1375 441 1709 441 
Q 2250 441 2565 725 
Q 2881 1009 2881 1497 
Q 2881 1984 2565 2268 
Q 2250 2553 1709 2553 
Q 1456 2553 1204 2497 
Q 953 2441 691 2322 
L 691 4666 
z
" id="DejaVuSans-35" transform="scale(0.015625)"/>
       </defs>
       <use xlink:href="#DejaVuSans-35"/>
      </g>
     </g>
    </g>
    <g id="xtick_7">
     <g id="line2d_7">
      <g>
       <use style="stroke:#000000;stroke-width:0.8;" x="602.82046" xlink:href="#m16b51fc29f" y="246.2"/>
      </g>
     </g>
     <g id="text_7">
      <!-- 6 -->
      <g transform="translate(599.63921 260.798437)scale(0.1 -0.1)">
       <defs>
        <path d="M 2113 2584 
Q 1688 2584 1439 2293 
Q 1191 2003 1191 1497 
Q 1191 994 1439 701 
Q 1688 409 2113 409 
Q 2538 409 2786 701 
Q 3034 994 3034 1497 
Q 3034 2003 2786 2293 
Q 2538 2584 2113 2584 
z
M 3366 4563 
L 3366 3988 
Q 3128 4100 2886 4159 
Q 2644 4219 2406 4219 
Q 1781 4219 1451 3797 
Q 1122 3375 1075 2522 
Q 1259 2794 1537 2939 
Q 1816 3084 2150 3084 
Q 2853 3084 3261 2657 
Q 3669 2231 3669 1497 
Q 3669 778 3244 343 
Q 2819 -91 2113 -91 
Q 1303 -91 875 529 
Q 447 1150 447 2328 
Q 447 3434 972 4092 
Q 1497 4750 2381 4750 
Q 2619 4750 2861 4703 
Q 3103 4656 3366 4563 
z
" id="DejaVuSans-36" transform="scale(0.015625)"/>
       </defs>
       <use xlink:href="#DejaVuSans-36"/>
      </g>
     </g>
    </g>
    <g id="xtick_8">
     <g id="line2d_8">
      <g>
       <use style="stroke:#000000;stroke-width:0.8;" x="669.636371" xlink:href="#m16b51fc29f" y="246.2"/>
      </g>
     </g>
     <g id="text_8">
      <!-- 7 -->
      <g transform="translate(666.455121 260.798437)scale(0.1 -0.1)">
       <defs>
        <path d="M 525 4666 
L 3525 4666 
L 3525 4397 
L 1831 0 
L 1172 0 
L 2766 4134 
L 525 4134 
L 525 4666 
z
" id="DejaVuSans-37" transform="scale(0.015625)"/>
       </defs>
       <use xlink:href="#DejaVuSans-37"/>
      </g>
     </g>
    </g>
    <g id="text_9">
     <!-- -log10 pvalue -->
     <g transform="translate(421.352344 274.476562)scale(0.1 -0.1)">
      <defs>
       <path d="M 313 2009 
L 1997 2009 
L 1997 1497 
L 313 1497 
L 313 2009 
z
" id="DejaVuSans-2d" transform="scale(0.015625)"/>
       <path d="M 603 4863 
L 1178 4863 
L 1178 0 
L 603 0 
L 603 4863 
z
" id="DejaVuSans-6c" transform="scale(0.015625)"/>
       <path d="M 1959 3097 
Q 1497 3097 1228 2736 
Q 959 2375 959 1747 
Q 959 1119 1226 758 
Q 1494 397 1959 397 
Q 2419 397 2687 759 
Q 2956 1122 2956 1747 
Q 2956 2369 2687 2733 
Q 2419 3097 1959 3097 
z
M 1959 3584 
Q 2709 3584 3137 3096 
Q 3566 2609 3566 1747 
Q 3566 888 3137 398 
Q 2709 -91 1959 -91 
Q 1206 -91 779 398 
Q 353 888 353 1747 
Q 353 2609 779 3096 
Q 1206 3584 1959 3584 
z
" id="DejaVuSans-6f" transform="scale(0.015625)"/>
       <path d="M 2906 1791 
Q 2906 2416 2648 2759 
Q 2391 3103 1925 3103 
Q 1463 3103 1205 2759 
Q 947 2416 947 1791 
Q 947 1169 1205 825 
Q 1463 481 1925 481 
Q 2391 481 2648 825 
Q 2906 1169 2906 1791 
z
M 3481 434 
Q 3481 -459 3084 -895 
Q 2688 -1331 1869 -1331 
Q 1566 -1331 1297 -1286 
Q 1028 -1241 775 -1147 
L 775 -588 
Q 1028 -725 1275 -790 
Q 1522 -856 1778 -856 
Q 2344 -856 2625 -561 
Q 2906 -266 2906 331 
L 2906 616 
Q 2728 306 2450 153 
Q 2172 0 1784 0 
Q 1141 0 747 490 
Q 353 981 353 1791 
Q 353 2603 747 3093 
Q 1141 3584 1784 3584 
Q 2172 3584 2450 3431 
Q 2728 3278 2906 2969 
L 2906 3500 
L 3481 3500 
L 3481 434 
z
" id="DejaVuSans-67" transform="scale(0.015625)"/>
       <path id="DejaVuSans-20" transform="scale(0.015625)"/>
       <path d="M 1159 525 
L 1159 -1331 
L 581 -1331 
L 581 3500 
L 1159 3500 
L 1159 2969 
Q 1341 3281 1617 3432 
Q 1894 3584 2278 3584 
Q 2916 3584 3314 3078 
Q 3713 2572 3713 1747 
Q 3713 922 3314 415 
Q 2916 -91 2278 -91 
Q 1894 -91 1617 61 
Q 1341 213 1159 525 
z
M 3116 1747 
Q 3116 2381 2855 2742 
Q 2594 3103 2138 3103 
Q 1681 3103 1420 2742 
Q 1159 2381 1159 1747 
Q 1159 1113 1420 752 
Q 1681 391 2138 391 
Q 2594 391 2855 752 
Q 3116 1113 3116 1747 
z
" id="DejaVuSans-70" transform="scale(0.015625)"/>
       <path d="M 191 3500 
L 800 3500 
L 1894 563 
L 2988 3500 
L 3597 3500 
L 2284 0 
L 1503 0 
L 191 3500 
z
" id="DejaVuSans-76" transform="scale(0.015625)"/>
       <path d="M 2194 1759 
Q 1497 1759 1228 1600 
Q 959 1441 959 1056 
Q 959 750 1161 570 
Q 1363 391 1709 391 
Q 2188 391 2477 730 
Q 2766 1069 2766 1631 
L 2766 1759 
L 2194 1759 
z
M 3341 1997 
L 3341 0 
L 2766 0 
L 2766 531 
Q 2569 213 2275 61 
Q 1981 -91 1556 -91 
Q 1019 -91 701 211 
Q 384 513 384 1019 
Q 384 1609 779 1909 
Q 1175 2209 1959 2209 
L 2766 2209 
L 2766 2266 
Q 2766 2663 2505 2880 
Q 2244 3097 1772 3097 
Q 1472 3097 1187 3025 
Q 903 2953 641 2809 
L 641 3341 
Q 956 3463 1253 3523 
Q 1550 3584 1831 3584 
Q 2591 3584 2966 3190 
Q 3341 2797 3341 1997 
z
" id="DejaVuSans-61" transform="scale(0.015625)"/>
       <path d="M 544 1381 
L 544 3500 
L 1119 3500 
L 1119 1403 
Q 1119 906 1312 657 
Q 1506 409 1894 409 
Q 2359 409 2629 706 
Q 2900 1003 2900 1516 
L 2900 3500 
L 3475 3500 
L 3475 0 
L 2900 0 
L 2900 538 
Q 2691 219 2414 64 
Q 2138 -91 1772 -91 
Q 1169 -91 856 284 
Q 544 659 544 1381 
z
M 1991 3584 
L 1991 3584 
z
" id="DejaVuSans-75" transform="scale(0.015625)"/>
       <path d="M 3597 1894 
L 3597 1613 
L 953 1613 
Q 991 1019 1311 708 
Q 1631 397 2203 397 
Q 2534 397 2845 478 
Q 3156 559 3463 722 
L 3463 178 
Q 3153 47 2828 -22 
Q 2503 -91 2169 -91 
Q 1331 -91 842 396 
Q 353 884 353 1716 
Q 353 2575 817 3079 
Q 1281 3584 2069 3584 
Q 2775 3584 3186 3129 
Q 3597 2675 3597 1894 
z
M 3022 2063 
Q 3016 2534 2758 2815 
Q 2500 3097 2075 3097 
Q 1594 3097 1305 2825 
Q 1016 2553 972 2059 
L 3022 2063 
z
" id="DejaVuSans-65" transform="scale(0.015625)"/>
      </defs>
      <use xlink:href="#DejaVuSans-2d"/>
      <use x="36.083984" xlink:href="#DejaVuSans-6c"/>
      <use x="63.867188" xlink:href="#DejaVuSans-6f"/>
      <use x="125.048828" xlink:href="#DejaVuSans-67"/>
      <use x="188.525391" xlink:href="#DejaVuSans-31"/>
      <use x="252.148438" xlink:href="#DejaVuSans-30"/>
      <use x="315.771484" xlink:href="#DejaVuSans-20"/>
      <use x="347.558594" xlink:href="#DejaVuSans-70"/>
      <use x="411.035156" xlink:href="#DejaVuSans-76"/>
      <use x="470.214844" xlink:href="#DejaVuSans-61"/>
      <use x="531.494141" xlink:href="#DejaVuSans-6c"/>
      <use x="559.277344" xlink:href="#DejaVuSans-75"/>
      <use x="622.65625" xlink:href="#DejaVuSans-65"/>
     </g>
    </g>
   </g>
   <g id="matplotlib.axis_2">
    <g id="ytick_1">
     <g id="line2d_9">
      <defs>
       <path d="M 0 0 
L -3.5 0 
" id="mcde9fb6606" style="stroke:#000000;stroke-width:0.8;"/>
      </defs>
      <g>
       <use style="stroke:#000000;stroke-width:0.8;" x="201.925" xlink:href="#mcde9fb6606" y="53.393939"/>
      </g>
     </g>
     <g id="text_10">
      <!-- EDA Signalling in Hair -->
      <g transform="translate(86.092187 52.354096)scale(0.1 -0.1)">
       <defs>
        <path d="M 628 4666 
L 3578 4666 
L 3578 4134 
L 1259 4134 
L 1259 2753 
L 3481 2753 
L 3481 2222 
L 1259 2222 
L 1259 531 
L 3634 531 
L 3634 0 
L 628 0 
L 628 4666 
z
" id="DejaVuSans-45" transform="scale(0.015625)"/>
        <path d="M 1259 4147 
L 1259 519 
L 2022 519 
Q 2988 519 3436 956 
Q 3884 1394 3884 2338 
Q 3884 3275 3436 3711 
Q 2988 4147 2022 4147 
L 1259 4147 
z
M 628 4666 
L 1925 4666 
Q 3281 4666 3915 4102 
Q 4550 3538 4550 2338 
Q 4550 1131 3912 565 
Q 3275 0 1925 0 
L 628 0 
L 628 4666 
z
" id="DejaVuSans-44" transform="scale(0.015625)"/>
        <path d="M 2188 4044 
L 1331 1722 
L 3047 1722 
L 2188 4044 
z
M 1831 4666 
L 2547 4666 
L 4325 0 
L 3669 0 
L 3244 1197 
L 1141 1197 
L 716 0 
L 50 0 
L 1831 4666 
z
" id="DejaVuSans-41" transform="scale(0.015625)"/>
        <path d="M 3425 4513 
L 3425 3897 
Q 3066 4069 2747 4153 
Q 2428 4238 2131 4238 
Q 1616 4238 1336 4038 
Q 1056 3838 1056 3469 
Q 1056 3159 1242 3001 
Q 1428 2844 1947 2747 
L 2328 2669 
Q 3034 2534 3370 2195 
Q 3706 1856 3706 1288 
Q 3706 609 3251 259 
Q 2797 -91 1919 -91 
Q 1588 -91 1214 -16 
Q 841 59 441 206 
L 441 856 
Q 825 641 1194 531 
Q 1563 422 1919 422 
Q 2459 422 2753 634 
Q 3047 847 3047 1241 
Q 3047 1584 2836 1778 
Q 2625 1972 2144 2069 
L 1759 2144 
Q 1053 2284 737 2584 
Q 422 2884 422 3419 
Q 422 4038 858 4394 
Q 1294 4750 2059 4750 
Q 2388 4750 2728 4690 
Q 3069 4631 3425 4513 
z
" id="DejaVuSans-53" transform="scale(0.015625)"/>
        <path d="M 603 3500 
L 1178 3500 
L 1178 0 
L 603 0 
L 603 3500 
z
M 603 4863 
L 1178 4863 
L 1178 4134 
L 603 4134 
L 603 4863 
z
" id="DejaVuSans-69" transform="scale(0.015625)"/>
        <path d="M 3513 2113 
L 3513 0 
L 2938 0 
L 2938 2094 
Q 2938 2591 2744 2837 
Q 2550 3084 2163 3084 
Q 1697 3084 1428 2787 
Q 1159 2491 1159 1978 
L 1159 0 
L 581 0 
L 581 3500 
L 1159 3500 
L 1159 2956 
Q 1366 3272 1645 3428 
Q 1925 3584 2291 3584 
Q 2894 3584 3203 3211 
Q 3513 2838 3513 2113 
z
" id="DejaVuSans-6e" transform="scale(0.015625)"/>
        <path d="M 628 4666 
L 1259 4666 
L 1259 2753 
L 3553 2753 
L 3553 4666 
L 4184 4666 
L 4184 0 
L 3553 0 
L 3553 2222 
L 1259 2222 
L 1259 0 
L 628 0 
L 628 4666 
z
" id="DejaVuSans-48" transform="scale(0.015625)"/>
        <path d="M 2631 2963 
Q 2534 3019 2420 3045 
Q 2306 3072 2169 3072 
Q 1681 3072 1420 2755 
Q 1159 2438 1159 1844 
L 1159 0 
L 581 0 
L 581 3500 
L 1159 3500 
L 1159 2956 
Q 1341 3275 1631 3429 
Q 1922 3584 2338 3584 
Q 2397 3584 2469 3576 
Q 2541 3569 2628 3553 
L 2631 2963 
z
" id="DejaVuSans-72" transform="scale(0.015625)"/>
       </defs>
       <use xlink:href="#DejaVuSans-45"/>
       <use x="63.183594" xlink:href="#DejaVuSans-44"/>
       <use x="138.435547" xlink:href="#DejaVuSans-41"/>
       <use x="206.84375" xlink:href="#DejaVuSans-20"/>
       <use x="238.630859" xlink:href="#DejaVuSans-53"/>
       <use x="302.107422" xlink:href="#DejaVuSans-69"/>
       <use x="329.890625" xlink:href="#DejaVuSans-67"/>
       <use x="393.367188" xlink:href="#DejaVuSans-6e"/>
       <use x="456.746094" xlink:href="#DejaVuSans-61"/>
       <use x="518.025391" xlink:href="#DejaVuSans-6c"/>
       <use x="545.808594" xlink:href="#DejaVuSans-6c"/>
       <use x="573.591797" xlink:href="#DejaVuSans-69"/>
       <use x="601.375" xlink:href="#DejaVuSans-6e"/>
       <use x="664.753906" xlink:href="#DejaVuSans-67"/>
       <use x="728.230469" xlink:href="#DejaVuSans-20"/>
       <use x="760.017578" xlink:href="#DejaVuSans-69"/>
       <use x="787.800781" xlink:href="#DejaVuSans-6e"/>
       <use x="851.179688" xlink:href="#DejaVuSans-20"/>
       <use x="882.966797" xlink:href="#DejaVuSans-48"/>
       <use x="958.162109" xlink:href="#DejaVuSans-61"/>
       <use x="1019.441406" xlink:href="#DejaVuSans-69"/>
       <use x="1047.224609" xlink:href="#DejaVuSans-72"/>
      </g>
      <!-- Follicle Development WP3652 -->
      <g transform="translate(45.607812 63.551908)scale(0.1 -0.1)">
       <defs>
        <path d="M 628 4666 
L 3309 4666 
L 3309 4134 
L 1259 4134 
L 1259 2759 
L 3109 2759 
L 3109 2228 
L 1259 2228 
L 1259 0 
L 628 0 
L 628 4666 
z
" id="DejaVuSans-46" transform="scale(0.015625)"/>
        <path d="M 3122 3366 
L 3122 2828 
Q 2878 2963 2633 3030 
Q 2388 3097 2138 3097 
Q 1578 3097 1268 2742 
Q 959 2388 959 1747 
Q 959 1106 1268 751 
Q 1578 397 2138 397 
Q 2388 397 2633 464 
Q 2878 531 3122 666 
L 3122 134 
Q 2881 22 2623 -34 
Q 2366 -91 2075 -91 
Q 1284 -91 818 406 
Q 353 903 353 1747 
Q 353 2603 823 3093 
Q 1294 3584 2113 3584 
Q 2378 3584 2631 3529 
Q 2884 3475 3122 3366 
z
" id="DejaVuSans-63" transform="scale(0.015625)"/>
        <path d="M 3328 2828 
Q 3544 3216 3844 3400 
Q 4144 3584 4550 3584 
Q 5097 3584 5394 3201 
Q 5691 2819 5691 2113 
L 5691 0 
L 5113 0 
L 5113 2094 
Q 5113 2597 4934 2840 
Q 4756 3084 4391 3084 
Q 3944 3084 3684 2787 
Q 3425 2491 3425 1978 
L 3425 0 
L 2847 0 
L 2847 2094 
Q 2847 2600 2669 2842 
Q 2491 3084 2119 3084 
Q 1678 3084 1418 2786 
Q 1159 2488 1159 1978 
L 1159 0 
L 581 0 
L 581 3500 
L 1159 3500 
L 1159 2956 
Q 1356 3278 1631 3431 
Q 1906 3584 2284 3584 
Q 2666 3584 2933 3390 
Q 3200 3197 3328 2828 
z
" id="DejaVuSans-6d" transform="scale(0.015625)"/>
        <path d="M 1172 4494 
L 1172 3500 
L 2356 3500 
L 2356 3053 
L 1172 3053 
L 1172 1153 
Q 1172 725 1289 603 
Q 1406 481 1766 481 
L 2356 481 
L 2356 0 
L 1766 0 
Q 1100 0 847 248 
Q 594 497 594 1153 
L 594 3053 
L 172 3053 
L 172 3500 
L 594 3500 
L 594 4494 
L 1172 4494 
z
" id="DejaVuSans-74" transform="scale(0.015625)"/>
        <path d="M 213 4666 
L 850 4666 
L 1831 722 
L 2809 4666 
L 3519 4666 
L 4500 722 
L 5478 4666 
L 6119 4666 
L 4947 0 
L 4153 0 
L 3169 4050 
L 2175 0 
L 1381 0 
L 213 4666 
z
" id="DejaVuSans-57" transform="scale(0.015625)"/>
        <path d="M 1259 4147 
L 1259 2394 
L 2053 2394 
Q 2494 2394 2734 2622 
Q 2975 2850 2975 3272 
Q 2975 3691 2734 3919 
Q 2494 4147 2053 4147 
L 1259 4147 
z
M 628 4666 
L 2053 4666 
Q 2838 4666 3239 4311 
Q 3641 3956 3641 3272 
Q 3641 2581 3239 2228 
Q 2838 1875 2053 1875 
L 1259 1875 
L 1259 0 
L 628 0 
L 628 4666 
z
" id="DejaVuSans-50" transform="scale(0.015625)"/>
       </defs>
       <use xlink:href="#DejaVuSans-46"/>
       <use x="53.894531" xlink:href="#DejaVuSans-6f"/>
       <use x="115.076172" xlink:href="#DejaVuSans-6c"/>
       <use x="142.859375" xlink:href="#DejaVuSans-6c"/>
       <use x="170.642578" xlink:href="#DejaVuSans-69"/>
       <use x="198.425781" xlink:href="#DejaVuSans-63"/>
       <use x="253.40625" xlink:href="#DejaVuSans-6c"/>
       <use x="281.189453" xlink:href="#DejaVuSans-65"/>
       <use x="342.712891" xlink:href="#DejaVuSans-20"/>
       <use x="374.5" xlink:href="#DejaVuSans-44"/>
       <use x="451.501953" xlink:href="#DejaVuSans-65"/>
       <use x="513.025391" xlink:href="#DejaVuSans-76"/>
       <use x="572.205078" xlink:href="#DejaVuSans-65"/>
       <use x="633.728516" xlink:href="#DejaVuSans-6c"/>
       <use x="661.511719" xlink:href="#DejaVuSans-6f"/>
       <use x="722.693359" xlink:href="#DejaVuSans-70"/>
       <use x="786.169922" xlink:href="#DejaVuSans-6d"/>
       <use x="883.582031" xlink:href="#DejaVuSans-65"/>
       <use x="945.105469" xlink:href="#DejaVuSans-6e"/>
       <use x="1008.484375" xlink:href="#DejaVuSans-74"/>
       <use x="1047.693359" xlink:href="#DejaVuSans-20"/>
       <use x="1079.480469" xlink:href="#DejaVuSans-57"/>
       <use x="1178.357422" xlink:href="#DejaVuSans-50"/>
       <use x="1238.660156" xlink:href="#DejaVuSans-33"/>
       <use x="1302.283203" xlink:href="#DejaVuSans-36"/>
       <use x="1365.90625" xlink:href="#DejaVuSans-35"/>
       <use x="1429.529297" xlink:href="#DejaVuSans-32"/>
      </g>
     </g>
    </g>
    <g id="ytick_2">
     <g id="line2d_10">
      <g>
       <use style="stroke:#000000;stroke-width:0.8;" x="201.925" xlink:href="#mcde9fb6606" y="94.94697"/>
      </g>
     </g>
     <g id="text_11">
      <!-- Hedgehog Signaling Pathway WP116 -->
      <g transform="translate(10.684375 98.746188)scale(0.1 -0.1)">
       <defs>
        <path d="M 2906 2969 
L 2906 4863 
L 3481 4863 
L 3481 0 
L 2906 0 
L 2906 525 
Q 2725 213 2448 61 
Q 2172 -91 1784 -91 
Q 1150 -91 751 415 
Q 353 922 353 1747 
Q 353 2572 751 3078 
Q 1150 3584 1784 3584 
Q 2172 3584 2448 3432 
Q 2725 3281 2906 2969 
z
M 947 1747 
Q 947 1113 1208 752 
Q 1469 391 1925 391 
Q 2381 391 2643 752 
Q 2906 1113 2906 1747 
Q 2906 2381 2643 2742 
Q 2381 3103 1925 3103 
Q 1469 3103 1208 2742 
Q 947 2381 947 1747 
z
" id="DejaVuSans-64" transform="scale(0.015625)"/>
        <path d="M 3513 2113 
L 3513 0 
L 2938 0 
L 2938 2094 
Q 2938 2591 2744 2837 
Q 2550 3084 2163 3084 
Q 1697 3084 1428 2787 
Q 1159 2491 1159 1978 
L 1159 0 
L 581 0 
L 581 4863 
L 1159 4863 
L 1159 2956 
Q 1366 3272 1645 3428 
Q 1925 3584 2291 3584 
Q 2894 3584 3203 3211 
Q 3513 2838 3513 2113 
z
" id="DejaVuSans-68" transform="scale(0.015625)"/>
        <path d="M 269 3500 
L 844 3500 
L 1563 769 
L 2278 3500 
L 2956 3500 
L 3675 769 
L 4391 3500 
L 4966 3500 
L 4050 0 
L 3372 0 
L 2619 2869 
L 1863 0 
L 1184 0 
L 269 3500 
z
" id="DejaVuSans-77" transform="scale(0.015625)"/>
        <path d="M 2059 -325 
Q 1816 -950 1584 -1140 
Q 1353 -1331 966 -1331 
L 506 -1331 
L 506 -850 
L 844 -850 
Q 1081 -850 1212 -737 
Q 1344 -625 1503 -206 
L 1606 56 
L 191 3500 
L 800 3500 
L 1894 763 
L 2988 3500 
L 3597 3500 
L 2059 -325 
z
" id="DejaVuSans-79" transform="scale(0.015625)"/>
       </defs>
       <use xlink:href="#DejaVuSans-48"/>
       <use x="75.195312" xlink:href="#DejaVuSans-65"/>
       <use x="136.71875" xlink:href="#DejaVuSans-64"/>
       <use x="200.195312" xlink:href="#DejaVuSans-67"/>
       <use x="263.671875" xlink:href="#DejaVuSans-65"/>
       <use x="325.195312" xlink:href="#DejaVuSans-68"/>
       <use x="388.574219" xlink:href="#DejaVuSans-6f"/>
       <use x="449.755859" xlink:href="#DejaVuSans-67"/>
       <use x="513.232422" xlink:href="#DejaVuSans-20"/>
       <use x="545.019531" xlink:href="#DejaVuSans-53"/>
       <use x="608.496094" xlink:href="#DejaVuSans-69"/>
       <use x="636.279297" xlink:href="#DejaVuSans-67"/>
       <use x="699.755859" xlink:href="#DejaVuSans-6e"/>
       <use x="763.134766" xlink:href="#DejaVuSans-61"/>
       <use x="824.414062" xlink:href="#DejaVuSans-6c"/>
       <use x="852.197266" xlink:href="#DejaVuSans-69"/>
       <use x="879.980469" xlink:href="#DejaVuSans-6e"/>
       <use x="943.359375" xlink:href="#DejaVuSans-67"/>
       <use x="1006.835938" xlink:href="#DejaVuSans-20"/>
       <use x="1038.623047" xlink:href="#DejaVuSans-50"/>
       <use x="1094.425781" xlink:href="#DejaVuSans-61"/>
       <use x="1155.705078" xlink:href="#DejaVuSans-74"/>
       <use x="1194.914062" xlink:href="#DejaVuSans-68"/>
       <use x="1258.292969" xlink:href="#DejaVuSans-77"/>
       <use x="1340.080078" xlink:href="#DejaVuSans-61"/>
       <use x="1401.359375" xlink:href="#DejaVuSans-79"/>
       <use x="1460.539062" xlink:href="#DejaVuSans-20"/>
       <use x="1492.326172" xlink:href="#DejaVuSans-57"/>
       <use x="1591.203125" xlink:href="#DejaVuSans-50"/>
       <use x="1651.505859" xlink:href="#DejaVuSans-31"/>
       <use x="1715.128906" xlink:href="#DejaVuSans-31"/>
       <use x="1778.751953" xlink:href="#DejaVuSans-36"/>
      </g>
     </g>
    </g>
    <g id="ytick_3">
     <g id="line2d_11">
      <g>
       <use style="stroke:#000000;stroke-width:0.8;" x="201.925" xlink:href="#mcde9fb6606" y="136.5"/>
      </g>
     </g>
     <g id="text_12">
      <!-- G1 to S cell -->
      <g transform="translate(137.684375 135.460156)scale(0.1 -0.1)">
       <defs>
        <path d="M 3809 666 
L 3809 1919 
L 2778 1919 
L 2778 2438 
L 4434 2438 
L 4434 434 
Q 4069 175 3628 42 
Q 3188 -91 2688 -91 
Q 1594 -91 976 548 
Q 359 1188 359 2328 
Q 359 3472 976 4111 
Q 1594 4750 2688 4750 
Q 3144 4750 3555 4637 
Q 3966 4525 4313 4306 
L 4313 3634 
Q 3963 3931 3569 4081 
Q 3175 4231 2741 4231 
Q 1884 4231 1454 3753 
Q 1025 3275 1025 2328 
Q 1025 1384 1454 906 
Q 1884 428 2741 428 
Q 3075 428 3337 486 
Q 3600 544 3809 666 
z
" id="DejaVuSans-47" transform="scale(0.015625)"/>
       </defs>
       <use xlink:href="#DejaVuSans-47"/>
       <use x="77.490234" xlink:href="#DejaVuSans-31"/>
       <use x="141.113281" xlink:href="#DejaVuSans-20"/>
       <use x="172.900391" xlink:href="#DejaVuSans-74"/>
       <use x="212.109375" xlink:href="#DejaVuSans-6f"/>
       <use x="273.291016" xlink:href="#DejaVuSans-20"/>
       <use x="305.078125" xlink:href="#DejaVuSans-53"/>
       <use x="368.554688" xlink:href="#DejaVuSans-20"/>
       <use x="400.341797" xlink:href="#DejaVuSans-63"/>
       <use x="455.322266" xlink:href="#DejaVuSans-65"/>
       <use x="516.845703" xlink:href="#DejaVuSans-6c"/>
       <use x="544.628906" xlink:href="#DejaVuSans-6c"/>
      </g>
      <!-- cycle control WP413 -->
      <g transform="translate(93.059375 146.657969)scale(0.1 -0.1)">
       <use xlink:href="#DejaVuSans-63"/>
       <use x="54.980469" xlink:href="#DejaVuSans-79"/>
       <use x="114.160156" xlink:href="#DejaVuSans-63"/>
       <use x="169.140625" xlink:href="#DejaVuSans-6c"/>
       <use x="196.923828" xlink:href="#DejaVuSans-65"/>
       <use x="258.447266" xlink:href="#DejaVuSans-20"/>
       <use x="290.234375" xlink:href="#DejaVuSans-63"/>
       <use x="345.214844" xlink:href="#DejaVuSans-6f"/>
       <use x="406.396484" xlink:href="#DejaVuSans-6e"/>
       <use x="469.775391" xlink:href="#DejaVuSans-74"/>
       <use x="508.984375" xlink:href="#DejaVuSans-72"/>
       <use x="547.847656" xlink:href="#DejaVuSans-6f"/>
       <use x="609.029297" xlink:href="#DejaVuSans-6c"/>
       <use x="636.8125" xlink:href="#DejaVuSans-20"/>
       <use x="668.599609" xlink:href="#DejaVuSans-57"/>
       <use x="767.476562" xlink:href="#DejaVuSans-50"/>
       <use x="827.779297" xlink:href="#DejaVuSans-34"/>
       <use x="891.402344" xlink:href="#DejaVuSans-31"/>
       <use x="955.025391" xlink:href="#DejaVuSans-33"/>
      </g>
     </g>
    </g>
    <g id="ytick_4">
     <g id="line2d_12">
      <g>
       <use style="stroke:#000000;stroke-width:0.8;" x="201.925" xlink:href="#mcde9fb6606" y="178.05303"/>
      </g>
     </g>
     <g id="text_13">
      <!-- Purine metabolism WP2185 -->
      <g transform="translate(56.714062 181.852249)scale(0.1 -0.1)">
       <defs>
        <path d="M 3116 1747 
Q 3116 2381 2855 2742 
Q 2594 3103 2138 3103 
Q 1681 3103 1420 2742 
Q 1159 2381 1159 1747 
Q 1159 1113 1420 752 
Q 1681 391 2138 391 
Q 2594 391 2855 752 
Q 3116 1113 3116 1747 
z
M 1159 2969 
Q 1341 3281 1617 3432 
Q 1894 3584 2278 3584 
Q 2916 3584 3314 3078 
Q 3713 2572 3713 1747 
Q 3713 922 3314 415 
Q 2916 -91 2278 -91 
Q 1894 -91 1617 61 
Q 1341 213 1159 525 
L 1159 0 
L 581 0 
L 581 4863 
L 1159 4863 
L 1159 2969 
z
" id="DejaVuSans-62" transform="scale(0.015625)"/>
        <path d="M 2834 3397 
L 2834 2853 
Q 2591 2978 2328 3040 
Q 2066 3103 1784 3103 
Q 1356 3103 1142 2972 
Q 928 2841 928 2578 
Q 928 2378 1081 2264 
Q 1234 2150 1697 2047 
L 1894 2003 
Q 2506 1872 2764 1633 
Q 3022 1394 3022 966 
Q 3022 478 2636 193 
Q 2250 -91 1575 -91 
Q 1294 -91 989 -36 
Q 684 19 347 128 
L 347 722 
Q 666 556 975 473 
Q 1284 391 1588 391 
Q 1994 391 2212 530 
Q 2431 669 2431 922 
Q 2431 1156 2273 1281 
Q 2116 1406 1581 1522 
L 1381 1569 
Q 847 1681 609 1914 
Q 372 2147 372 2553 
Q 372 3047 722 3315 
Q 1072 3584 1716 3584 
Q 2034 3584 2315 3537 
Q 2597 3491 2834 3397 
z
" id="DejaVuSans-73" transform="scale(0.015625)"/>
        <path d="M 2034 2216 
Q 1584 2216 1326 1975 
Q 1069 1734 1069 1313 
Q 1069 891 1326 650 
Q 1584 409 2034 409 
Q 2484 409 2743 651 
Q 3003 894 3003 1313 
Q 3003 1734 2745 1975 
Q 2488 2216 2034 2216 
z
M 1403 2484 
Q 997 2584 770 2862 
Q 544 3141 544 3541 
Q 544 4100 942 4425 
Q 1341 4750 2034 4750 
Q 2731 4750 3128 4425 
Q 3525 4100 3525 3541 
Q 3525 3141 3298 2862 
Q 3072 2584 2669 2484 
Q 3125 2378 3379 2068 
Q 3634 1759 3634 1313 
Q 3634 634 3220 271 
Q 2806 -91 2034 -91 
Q 1263 -91 848 271 
Q 434 634 434 1313 
Q 434 1759 690 2068 
Q 947 2378 1403 2484 
z
M 1172 3481 
Q 1172 3119 1398 2916 
Q 1625 2713 2034 2713 
Q 2441 2713 2670 2916 
Q 2900 3119 2900 3481 
Q 2900 3844 2670 4047 
Q 2441 4250 2034 4250 
Q 1625 4250 1398 4047 
Q 1172 3844 1172 3481 
z
" id="DejaVuSans-38" transform="scale(0.015625)"/>
       </defs>
       <use xlink:href="#DejaVuSans-50"/>
       <use x="58.552734" xlink:href="#DejaVuSans-75"/>
       <use x="121.931641" xlink:href="#DejaVuSans-72"/>
       <use x="163.044922" xlink:href="#DejaVuSans-69"/>
       <use x="190.828125" xlink:href="#DejaVuSans-6e"/>
       <use x="254.207031" xlink:href="#DejaVuSans-65"/>
       <use x="315.730469" xlink:href="#DejaVuSans-20"/>
       <use x="347.517578" xlink:href="#DejaVuSans-6d"/>
       <use x="444.929688" xlink:href="#DejaVuSans-65"/>
       <use x="506.453125" xlink:href="#DejaVuSans-74"/>
       <use x="545.662109" xlink:href="#DejaVuSans-61"/>
       <use x="606.941406" xlink:href="#DejaVuSans-62"/>
       <use x="670.417969" xlink:href="#DejaVuSans-6f"/>
       <use x="731.599609" xlink:href="#DejaVuSans-6c"/>
       <use x="759.382812" xlink:href="#DejaVuSans-69"/>
       <use x="787.166016" xlink:href="#DejaVuSans-73"/>
       <use x="839.265625" xlink:href="#DejaVuSans-6d"/>
       <use x="936.677734" xlink:href="#DejaVuSans-20"/>
       <use x="968.464844" xlink:href="#DejaVuSans-57"/>
       <use x="1067.341797" xlink:href="#DejaVuSans-50"/>
       <use x="1127.644531" xlink:href="#DejaVuSans-32"/>
       <use x="1191.267578" xlink:href="#DejaVuSans-31"/>
       <use x="1254.890625" xlink:href="#DejaVuSans-38"/>
       <use x="1318.513672" xlink:href="#DejaVuSans-35"/>
      </g>
     </g>
    </g>
    <g id="ytick_5">
     <g id="line2d_13">
      <g>
       <use style="stroke:#000000;stroke-width:0.8;" x="201.925" xlink:href="#mcde9fb6606" y="219.606061"/>
      </g>
     </g>
     <g id="text_14">
      <!-- DNA Replication WP150 -->
      <g transform="translate(76.204687 223.405279)scale(0.1 -0.1)">
       <defs>
        <path d="M 628 4666 
L 1478 4666 
L 3547 763 
L 3547 4666 
L 4159 4666 
L 4159 0 
L 3309 0 
L 1241 3903 
L 1241 0 
L 628 0 
L 628 4666 
z
" id="DejaVuSans-4e" transform="scale(0.015625)"/>
        <path d="M 2841 2188 
Q 3044 2119 3236 1894 
Q 3428 1669 3622 1275 
L 4263 0 
L 3584 0 
L 2988 1197 
Q 2756 1666 2539 1819 
Q 2322 1972 1947 1972 
L 1259 1972 
L 1259 0 
L 628 0 
L 628 4666 
L 2053 4666 
Q 2853 4666 3247 4331 
Q 3641 3997 3641 3322 
Q 3641 2881 3436 2590 
Q 3231 2300 2841 2188 
z
M 1259 4147 
L 1259 2491 
L 2053 2491 
Q 2509 2491 2742 2702 
Q 2975 2913 2975 3322 
Q 2975 3731 2742 3939 
Q 2509 4147 2053 4147 
L 1259 4147 
z
" id="DejaVuSans-52" transform="scale(0.015625)"/>
       </defs>
       <use xlink:href="#DejaVuSans-44"/>
       <use x="77.001953" xlink:href="#DejaVuSans-4e"/>
       <use x="151.806641" xlink:href="#DejaVuSans-41"/>
       <use x="220.214844" xlink:href="#DejaVuSans-20"/>
       <use x="252.001953" xlink:href="#DejaVuSans-52"/>
       <use x="316.984375" xlink:href="#DejaVuSans-65"/>
       <use x="378.507812" xlink:href="#DejaVuSans-70"/>
       <use x="441.984375" xlink:href="#DejaVuSans-6c"/>
       <use x="469.767578" xlink:href="#DejaVuSans-69"/>
       <use x="497.550781" xlink:href="#DejaVuSans-63"/>
       <use x="552.53125" xlink:href="#DejaVuSans-61"/>
       <use x="613.810547" xlink:href="#DejaVuSans-74"/>
       <use x="653.019531" xlink:href="#DejaVuSans-69"/>
       <use x="680.802734" xlink:href="#DejaVuSans-6f"/>
       <use x="741.984375" xlink:href="#DejaVuSans-6e"/>
       <use x="805.363281" xlink:href="#DejaVuSans-20"/>
       <use x="837.150391" xlink:href="#DejaVuSans-57"/>
       <use x="936.027344" xlink:href="#DejaVuSans-50"/>
       <use x="996.330078" xlink:href="#DejaVuSans-31"/>
       <use x="1059.953125" xlink:href="#DejaVuSans-35"/>
       <use x="1123.576172" xlink:href="#DejaVuSans-30"/>
      </g>
     </g>
    </g>
   </g>
   <g id="patch_8">
    <path d="M 201.925 246.2 
L 201.925 26.8 
" style="fill:none;stroke:#000000;stroke-linecap:square;stroke-linejoin:miter;stroke-width:0.8;"/>
   </g>
   <g id="patch_9">
    <path d="M 201.925 246.2 
L 709.2 246.2 
" style="fill:none;stroke:#000000;stroke-linecap:square;stroke-linejoin:miter;stroke-width:0.8;"/>
   </g>
   <g id="text_15">
    <!-- WikiPathways_2019_Mouse -->
    <g transform="translate(373.77875 20.8)scale(0.12 -0.12)">
     <defs>
      <path d="M 581 4863 
L 1159 4863 
L 1159 1991 
L 2875 3500 
L 3609 3500 
L 1753 1863 
L 3688 0 
L 2938 0 
L 1159 1709 
L 1159 0 
L 581 0 
L 581 4863 
z
" id="DejaVuSans-6b" transform="scale(0.015625)"/>
      <path d="M 3263 -1063 
L 3263 -1509 
L -63 -1509 
L -63 -1063 
L 3263 -1063 
z
" id="DejaVuSans-5f" transform="scale(0.015625)"/>
      <path d="M 703 97 
L 703 672 
Q 941 559 1184 500 
Q 1428 441 1663 441 
Q 2288 441 2617 861 
Q 2947 1281 2994 2138 
Q 2813 1869 2534 1725 
Q 2256 1581 1919 1581 
Q 1219 1581 811 2004 
Q 403 2428 403 3163 
Q 403 3881 828 4315 
Q 1253 4750 1959 4750 
Q 2769 4750 3195 4129 
Q 3622 3509 3622 2328 
Q 3622 1225 3098 567 
Q 2575 -91 1691 -91 
Q 1453 -91 1209 -44 
Q 966 3 703 97 
z
M 1959 2075 
Q 2384 2075 2632 2365 
Q 2881 2656 2881 3163 
Q 2881 3666 2632 3958 
Q 2384 4250 1959 4250 
Q 1534 4250 1286 3958 
Q 1038 3666 1038 3163 
Q 1038 2656 1286 2365 
Q 1534 2075 1959 2075 
z
" id="DejaVuSans-39" transform="scale(0.015625)"/>
      <path d="M 628 4666 
L 1569 4666 
L 2759 1491 
L 3956 4666 
L 4897 4666 
L 4897 0 
L 4281 0 
L 4281 4097 
L 3078 897 
L 2444 897 
L 1241 4097 
L 1241 0 
L 628 0 
L 628 4666 
z
" id="DejaVuSans-4d" transform="scale(0.015625)"/>
     </defs>
     <use xlink:href="#DejaVuSans-57"/>
     <use x="96.626953" xlink:href="#DejaVuSans-69"/>
     <use x="124.410156" xlink:href="#DejaVuSans-6b"/>
     <use x="182.320312" xlink:href="#DejaVuSans-69"/>
     <use x="210.103516" xlink:href="#DejaVuSans-50"/>
     <use x="265.90625" xlink:href="#DejaVuSans-61"/>
     <use x="327.185547" xlink:href="#DejaVuSans-74"/>
     <use x="366.394531" xlink:href="#DejaVuSans-68"/>
     <use x="429.773438" xlink:href="#DejaVuSans-77"/>
     <use x="511.560547" xlink:href="#DejaVuSans-61"/>
     <use x="572.839844" xlink:href="#DejaVuSans-79"/>
     <use x="632.019531" xlink:href="#DejaVuSans-73"/>
     <use x="684.119141" xlink:href="#DejaVuSans-5f"/>
     <use x="734.119141" xlink:href="#DejaVuSans-32"/>
     <use x="797.742188" xlink:href="#DejaVuSans-30"/>
     <use x="861.365234" xlink:href="#DejaVuSans-31"/>
     <use x="924.988281" xlink:href="#DejaVuSans-39"/>
     <use x="988.611328" xlink:href="#DejaVuSans-5f"/>
     <use x="1038.611328" xlink:href="#DejaVuSans-4d"/>
     <use x="1124.890625" xlink:href="#DejaVuSans-6f"/>
     <use x="1186.072266" xlink:href="#DejaVuSans-75"/>
     <use x="1249.451172" xlink:href="#DejaVuSans-73"/>
     <use x="1301.550781" xlink:href="#DejaVuSans-65"/>
    </g>
   </g>
  </g>
 </g>
 <defs>
  <clipPath id="pa1dacebe67">
   <rect height="219.4" width="507.275" x="201.925" y="26.8"/>
  </clipPath>
 </defs>
</svg>
