<svg width="1540" height="752" xmlns="http://www.w3.org/2000/svg" xmlns:xlink="http://www.w3.org/1999/xlink" overflow="hidden"><defs><clipPath id="clip0"><rect x="930" y="673" width="1540" height="752"/></clipPath></defs><g clip-path="url(#clip0)" transform="translate(-930 -673)"><path d="M1610.36 807.669C1721 727.991 1852.46 721.4 1903.98 792.946 1955.51 864.492 1907.58 987.083 1796.93 1066.76 1686.29 1146.44 1554.83 1153.03 1503.31 1081.48 1451.78 1009.94 1499.71 887.346 1610.36 807.669Z" stroke="#000000" stroke-width="4.58333" stroke-linecap="butt" stroke-linejoin="miter" stroke-miterlimit="8" stroke-opacity="1" fill="#702EA0" fill-rule="evenodd" fill-opacity="0.160784"/><path d="M2060.89 1056.35C2052.14 1038.46 2046.13 996.709 2047.77 981.202 2051.05 960.327 2069.17 953.791 2074.09 929.338 2079.01 904.885 2066.94 864.677 2077.28 834.483 2087.62 804.29 2104.06 807.048 2113.35 798.698L2133.02 784.384 2155.98 755.756C2163.86 742.848 2168.73 733.355 2182.21 723.549 2188.77 718.778 2194.41 711.955 2201.88 709.235 2225.83 700.523 2214.85 703.908 2234.67 698.5 2246.15 699.639 2277.31 699.7 2290.42 709.235L2319.93 730.707C2329.76 736.671 2334.68 739.653 2349.44 745.02 2364.19 750.388 2391.26 751.598 2408.46 762.913 2425.66 774.228 2443.94 792.121 2452.66 812.913 2466.49 845.919 2465.9 865.952 2462.36 886.844 2458.82 907.735 2449.45 925.139 2431.41 938.26 2423.71 950.862 2417.48 951.298 2411.74 974.045 2406 996.791 2408.98 1047.3 2396.96 1074.74 2384.94 1102.17 2376.75 1131.07 2339.6 1138.66 2302.45 1146.24 2299.29 1144.38 2273.79 1136.79 2253.57 1133.21 2236.82 1124.03 2218.28 1117.18 2199.73 1110.34 2182.21 1100.49 2162.53 1095.71 2142.86 1090.94 2121.09 1090.63 2100.23 1088.56 2083.29 1082 2069.63 1074.24 2060.89 1056.35Z" stroke="#000000" stroke-width="4.58333" stroke-linecap="butt" stroke-linejoin="miter" stroke-miterlimit="8" stroke-opacity="1" fill="#DCE5F3" fill-rule="evenodd" fill-opacity="1"/><path d="M936.5 888.5C936.5 773.073 1030.07 679.5 1145.5 679.5 1260.93 679.5 1354.5 773.073 1354.5 888.5 1354.5 1003.93 1260.93 1097.5 1145.5 1097.5 1030.07 1097.5 936.5 1003.93 936.5 888.5Z" stroke="#000000" stroke-width="4.58333" stroke-linecap="butt" stroke-linejoin="miter" stroke-miterlimit="8" stroke-opacity="1" fill="#FFA39E" fill-rule="evenodd" fill-opacity="0.180392"/><path d="M985.5 847C985.5 797.018 1025.79 756.5 1075.5 756.5 1125.21 756.5 1165.5 797.018 1165.5 847 1165.5 896.982 1125.21 937.5 1075.5 937.5 1025.79 937.5 985.5 896.982 985.5 847Z" stroke="#000000" stroke-width="4.58333" stroke-linecap="butt" stroke-linejoin="miter" stroke-miterlimit="8" stroke-opacity="1" fill="#F2F2F2" fill-rule="evenodd" fill-opacity="1"/><path d="M2213.5 872.5C2213.5 822.242 2253.57 781.5 2303 781.5 2352.43 781.5 2392.5 822.242 2392.5 872.5 2392.5 922.758 2352.43 963.5 2303 963.5 2253.57 963.5 2213.5 922.758 2213.5 872.5Z" stroke="#000000" stroke-width="4.58333" stroke-linecap="butt" stroke-linejoin="miter" stroke-miterlimit="8" stroke-opacity="1" fill="#F2F2F2" fill-rule="evenodd" fill-opacity="1"/><path d="M1578.5 963.5C1578.5 913.242 1618.57 872.5 1668 872.5 1717.43 872.5 1757.5 913.242 1757.5 963.5 1757.5 1013.76 1717.43 1054.5 1668 1054.5 1618.57 1054.5 1578.5 1013.76 1578.5 963.5Z" stroke="#000000" stroke-width="4.58333" stroke-linecap="butt" stroke-linejoin="miter" stroke-miterlimit="8" stroke-opacity="1" fill="#F2F2F2" fill-rule="evenodd" fill-opacity="1"/><rect x="1085.5" y="1238.5" width="52.9999" height="184" stroke="#000000" stroke-width="3.4375" stroke-linecap="butt" stroke-linejoin="miter" stroke-miterlimit="8" stroke-opacity="1" fill="#FFDBD7" fill-opacity="1"/><rect x="1174.5" y="1366.5" width="52.9999" height="56" stroke="#000000" stroke-width="3.4375" stroke-linecap="butt" stroke-linejoin="miter" stroke-miterlimit="8" stroke-opacity="1" fill="#DBE3F3" fill-opacity="1"/><rect x="1634.5" y="1301.5" width="52.9999" height="121" stroke="#000000" stroke-width="3.4375" stroke-linecap="butt" stroke-linejoin="miter" stroke-miterlimit="8" stroke-opacity="1" fill="#FFDBD7" fill-opacity="1"/><rect x="1723.5" y="1301.5" width="52.9999" height="121" stroke="#000000" stroke-width="3.4375" stroke-linecap="butt" stroke-linejoin="miter" stroke-miterlimit="8" stroke-opacity="1" fill="#DBE3F3" fill-opacity="1"/><rect x="2186.5" y="1364.5" width="53" height="57.0001" stroke="#000000" stroke-width="3.4375" stroke-linecap="butt" stroke-linejoin="miter" stroke-miterlimit="8" stroke-opacity="1" fill="#FFDBD7" fill-opacity="1"/><rect x="2275.5" y="1236.5" width="53" height="185" stroke="#000000" stroke-width="3.4375" stroke-linecap="butt" stroke-linejoin="miter" stroke-miterlimit="8" stroke-opacity="1" fill="#DBE3F3" fill-opacity="1"/><path d="M0 0 221.667 0.000360892" stroke="#000000" stroke-width="4.58333" stroke-linecap="butt" stroke-linejoin="miter" stroke-miterlimit="8" stroke-opacity="1" fill="none" fill-rule="evenodd" transform="matrix(-1 0 0 1 1266.17 1422.5)"/><path d="M0 0 221.667 0.000360892" stroke="#000000" stroke-width="4.58333" stroke-linecap="butt" stroke-linejoin="miter" stroke-miterlimit="8" stroke-opacity="1" fill="none" fill-rule="evenodd" transform="matrix(-1 0 0 1 1815.17 1422.5)"/><path d="M0 0 221.667 0.000360892" stroke="#000000" stroke-width="4.58333" stroke-linecap="butt" stroke-linejoin="miter" stroke-miterlimit="8" stroke-opacity="1" fill="none" fill-rule="evenodd" transform="matrix(-1 0 0 1 2367.17 1421.5)"/></g></svg>